<svg width="488" height="488" viewBox="0 0 488 488" fill="none" xmlns="http://www.w3.org/2000/svg">
<mask id="mask0_2746_21778" style="mask-type:luminance" maskUnits="userSpaceOnUse" x="0" y="0" width="488" height="488">
<path d="M0 0H487.334V487.334H0V0Z" fill="white"/>
</mask>
<g mask="url(#mask0_2746_21778)">
<path d="M68.207 436.5C180.617 435.904 306.719 435.899 419.128 436.5C306.718 437.101 180.617 437.097 68.207 436.5Z" fill="#1A2E35"/>
</g>
<mask id="mask1_2746_21778" style="mask-type:luminance" maskUnits="userSpaceOnUse" x="0" y="0" width="488" height="488">
<path d="M0 0H487.334V487.334H0V0Z" fill="white"/>
</mask>
<g mask="url(#mask1_2746_21778)">
<path d="M293.891 331.272H272.073C265.52 331.272 259.913 326.813 258.435 320.43L219.945 163.047L196.914 129.774L200.326 127.413L223.795 161.315L262.473 319.468C263.518 323.985 267.462 327.121 272.073 327.121H293.891V331.272Z" fill="#A8A8A8"/>
<path d="M278.652 331.272H256.834C250.281 331.272 244.674 326.813 243.196 320.43L204.686 162.96L185.51 129.629L189.106 127.558L208.578 161.401L247.235 319.468C248.279 323.985 252.225 327.121 256.834 327.121H278.652V331.272Z" fill="#A8A8A8"/>
<path d="M239.806 329.423L226.463 207.611L230.59 207.159L243.933 328.971L239.806 329.423Z" fill="#A8A8A8"/>
<path d="M420.653 227.193C420.583 227.193 420.512 227.19 420.441 227.183L232.693 208.805L119.201 208.195C118.012 208.188 117.053 207.22 117.059 206.031C117.065 204.847 118.028 203.891 119.213 203.891H119.224L232.816 204.502C232.882 204.503 232.949 204.506 233.014 204.513L420.861 222.9C422.045 223.015 422.91 224.069 422.793 225.251C422.685 226.363 421.748 227.193 420.653 227.193Z" fill="#A8A8A8"/>
<path d="M422.144 223.013C422.074 223.013 422.003 223.01 421.932 223.002L232.692 204.479L117.709 203.868C116.519 203.862 115.56 202.894 115.566 201.705C115.572 200.516 116.512 199.553 117.732 199.564L232.815 200.175C232.881 200.176 232.948 200.179 233.013 200.186L422.351 218.719C423.536 218.835 424.402 219.888 424.285 221.07C424.177 222.182 423.239 223.013 422.144 223.013Z" fill="#A8A8A8"/>
<mask id="mask2_2746_21778" style="mask-type:luminance" maskUnits="userSpaceOnUse" x="115" y="200" width="310" height="24">
<path d="M115.561 200.928H424.288V223.008H115.561V200.928Z" fill="white"/>
</mask>
<g mask="url(#mask2_2746_21778)">
<g opacity="0.100006">
<path d="M424.279 221.071C424.171 222.179 423.234 223.008 422.146 223.008C422.071 223.008 422.006 223.008 421.931 222.997L232.693 204.479L117.704 203.866C116.519 203.866 115.561 202.897 115.561 201.704C115.561 201.435 115.614 201.166 115.712 200.929C116.045 201.714 116.81 202.274 117.704 202.274L232.693 202.887L421.931 221.415C422.006 221.415 422.071 221.426 422.146 221.426C423.029 221.426 423.816 220.866 424.128 220.059C424.257 220.371 424.311 220.716 424.279 221.071Z" fill="black"/>
</g>
</g>
<path d="M365.773 214.23C377.778 214.694 389.824 215.873 401.694 217.745C389.686 217.281 377.641 216.103 365.773 214.23Z" fill="white"/>
<path d="M144.785 201.224C166.787 201.04 210.903 200.801 232.891 200.768C273.475 204.608 321.826 209.476 362.352 213.895C321.728 210.374 273.367 205.779 232.803 201.68C211.141 201.648 166.628 201.408 144.785 201.224Z" fill="white"/>
<path d="M243.35 331.272H240.308C233.083 331.272 226.93 326.599 225.677 320.16L206.762 205.192L210.858 204.519L229.763 319.427C230.625 323.861 235.065 327.121 240.308 327.121H243.35V331.272Z" fill="#A8A8A8"/>
<path d="M223.17 331.272H220.128C212.903 331.272 206.75 326.599 205.497 320.16L186.582 205.192L190.679 204.519L209.583 319.427C210.446 323.861 214.885 327.121 220.128 327.121H223.17V331.272Z" fill="#A8A8A8"/>
<path d="M202.995 331.272H199.953C192.728 331.272 186.575 326.599 185.323 320.16L165.373 205.21L169.463 204.5L189.405 319.409C190.271 323.861 194.711 327.121 199.953 327.121H202.995V331.272Z" fill="#A8A8A8"/>
<path d="M182.817 331.272H179.776C172.55 331.272 166.397 326.599 165.146 320.16L145.195 205.21L149.285 204.5L169.228 319.409C170.093 323.861 174.533 327.121 179.776 327.121H182.817V331.272Z" fill="#A8A8A8"/>
<path d="M161.602 331.272H158.561C151.334 331.272 145.181 326.599 143.93 320.16L122.945 205.228L127.028 204.483L148.008 319.39C148.877 323.861 153.317 327.121 158.561 327.121H161.602V331.272Z" fill="#A8A8A8"/>
<path d="M168.88 249.796H164.729V180.702H168.88V249.796Z" fill="#A8A8A8"/>
<path d="M185.094 249.796H180.943V180.702H185.094V249.796Z" fill="#A8A8A8"/>
<path d="M201.311 249.796H197.16V180.702H201.311V249.796Z" fill="#A8A8A8"/>
<path d="M232.846 251.87H133.191V247.719H232.846V251.87Z" fill="#A8A8A8"/>
<path d="M213.032 238.333H152.609V234.182H213.032V238.333Z" fill="#A8A8A8"/>
<path d="M237.546 282.329H139.85V278.178H237.546V282.329Z" fill="#A8A8A8"/>
<path d="M215.107 249.371H210.956V189.682C210.956 185.874 207.858 182.777 204.05 182.777H161.59C157.782 182.777 154.684 185.874 154.684 189.682V249.371H150.533V189.682C150.533 183.586 155.493 178.626 161.59 178.626H204.05C210.147 178.626 215.107 183.586 215.107 189.682V249.371Z" fill="#A8A8A8"/>
<path d="M221.467 282.497H155.636L149.275 246.956H165.692L166.552 251.771H200.828L199.966 246.956H215.106L221.467 282.497Z" fill="#375A64"/>
<mask id="mask3_2746_21778" style="mask-type:luminance" maskUnits="userSpaceOnUse" x="149" y="246" width="56" height="37">
<path d="M149.275 246.957H204.086V282.498H149.275V246.957Z" fill="white"/>
</mask>
<g mask="url(#mask3_2746_21778)">
<g opacity="0.100006">
<path d="M152.534 246.957L158.894 282.498H155.636L149.275 246.957H152.534Z" fill="black"/>
<path d="M204.087 251.771H200.828L199.967 246.957H203.225L204.087 251.771Z" fill="black"/>
</g>
</g>
<mask id="mask4_2746_21778" style="mask-type:luminance" maskUnits="userSpaceOnUse" x="154" y="246" width="67" height="37">
<path d="M154.324 246.96H220.134V282.5H154.324V246.96Z" fill="white"/>
</mask>
<g mask="url(#mask4_2746_21778)">
<g opacity="0.0500031">
<path d="M197.989 251.776L167.263 282.502H158.899L157.748 276.037L182.009 251.776H197.989Z" fill="black"/>
<path d="M219.572 271.897L208.967 282.502H192.986L217.144 258.345L219.572 271.897Z" fill="black"/>
<path d="M166.538 251.681L155.383 262.836L154.324 256.931L164.307 246.96H165.698L166.538 251.681Z" fill="black"/>
<path d="M215.837 250.997L184.333 282.501H182.424L215.547 249.378L215.837 250.997Z" fill="black"/>
<path d="M220.135 275.019L212.654 282.501H210.744L219.845 273.401L220.135 275.019Z" fill="black"/>
<path d="M172.018 251.776L156.224 267.569L155.934 265.95L170.108 251.776H172.018Z" fill="black"/>
</g>
</g>
<path d="M244.537 331.272H241.951V327.121H244.537C248.781 327.121 252.392 324.118 253.174 319.961L257.196 210.32L261.343 210.472L257.312 320.4L257.289 320.537C256.213 326.758 250.85 331.272 244.537 331.272Z" fill="#A8A8A8"/>
<path d="M267.848 331.272H265.262V327.121H267.848C272.109 327.121 275.733 324.093 276.496 319.909L286.465 210.619L290.598 210.996L280.599 320.537C279.523 326.758 274.159 331.272 267.848 331.272Z" fill="#A8A8A8"/>
<path d="M291.162 331.272H288.576V327.121H291.162C295.433 327.121 299.065 324.078 299.815 319.88L312.734 213.691L316.854 214.193L303.914 320.537C302.837 326.758 297.474 331.272 291.162 331.272Z" fill="#A8A8A8"/>
<path d="M314.474 331.272H311.889V327.121H314.474C318.762 327.121 322.404 324.055 323.135 319.831L339.43 216.609L343.529 217.257L327.231 320.507C326.149 326.758 320.786 331.272 314.474 331.272Z" fill="#A8A8A8"/>
<path d="M337.787 331.272H335.201V327.121H337.787C342.075 327.121 345.717 324.055 346.448 319.831L363.816 219.111L367.907 219.816L350.539 320.536C349.462 326.758 344.099 331.272 337.787 331.272Z" fill="#A8A8A8"/>
<path d="M360.062 331.272H357.477V327.121H360.062C364.351 327.121 367.993 324.055 368.723 319.831L389.371 222.229L393.432 223.088L372.799 320.613C371.738 326.758 366.375 331.272 360.062 331.272Z" fill="#A8A8A8"/>
<path d="M376.293 331.272H373.707V327.121H376.293C380.581 327.121 384.224 324.055 384.954 319.831L405.601 222.229L409.663 223.088L389.03 320.613C387.968 326.758 382.606 331.272 376.293 331.272Z" fill="#A8A8A8"/>
<path d="M407.632 281.568L342.925 281.564L115.955 267.733L116.208 263.591L343.114 277.417H407.632V281.568Z" fill="#A8A8A8"/>
</g>
<path d="M160.207 386.008H240.517V346.406H160.207V386.008Z" fill="#FFC800"/>
<mask id="mask5_2746_21778" style="mask-type:luminance" maskUnits="userSpaceOnUse" x="0" y="0" width="488" height="488">
<path d="M0 0H487.334V487.334H0V0Z" fill="white"/>
</mask>
<g mask="url(#mask5_2746_21778)">
<mask id="mask6_2746_21778" style="mask-type:luminance" maskUnits="userSpaceOnUse" x="160" y="346" width="81" height="41">
<path d="M160.211 346.408H240.521V386.01H160.211V346.408Z" fill="white"/>
</mask>
<g mask="url(#mask6_2746_21778)">
<g opacity="0.100006">
<path d="M160.211 386.01H240.521V346.408H160.211V386.01Z" fill="black"/>
</g>
</g>
<mask id="mask7_2746_21778" style="mask-type:luminance" maskUnits="userSpaceOnUse" x="209" y="346" width="32" height="41">
<path d="M209.811 346.408H240.516V386.013H209.811V346.408Z" fill="white"/>
</mask>
<g mask="url(#mask7_2746_21778)">
<g opacity="0.199997">
<path d="M240.516 386.013H209.811V346.407H240.516V386.013Z" fill="black"/>
</g>
</g>
<path d="M238.397 383.329C236.123 380.518 233.867 377.699 231.636 374.87L224.975 366.369L218.399 357.831C216.217 354.98 214.059 352.118 211.922 349.249C214.197 352.06 216.451 354.879 218.682 357.708L225.343 366.209L231.919 374.748C234.1 377.598 236.258 380.46 238.397 383.329Z" fill="#FFC800"/>
<path d="M238.397 349.249C236.258 352.118 234.1 354.98 231.919 357.83L225.343 366.369L218.682 374.87C216.451 377.699 214.197 380.518 211.922 383.329C214.059 380.46 216.217 377.598 218.399 374.747L224.975 366.209L231.636 357.708C233.867 354.879 236.123 352.06 238.397 349.249Z" fill="#FFC800"/>
<path d="M173.322 381.83H173.771V375.501H173.322V381.83Z" fill="#1A2E35"/>
<path d="M172.244 381.83H172.692V375.501H172.244V381.83Z" fill="#1A2E35"/>
<path d="M171.166 381.83H171.614V375.501H171.166V381.83Z" fill="#1A2E35"/>
<path d="M170.09 381.83H170.539V375.501H170.09V381.83Z" fill="#1A2E35"/>
<path d="M169.012 381.83H169.46V375.501H169.012V381.83Z" fill="#1A2E35"/>
<path d="M167.936 381.83H168.384V375.501H167.936V381.83Z" fill="#1A2E35"/>
<path d="M166.859 381.83H167.308V375.501H166.859V381.83Z" fill="#1A2E35"/>
<path d="M165.781 381.83H166.231V375.501H165.781V381.83Z" fill="#1A2E35"/>
<path d="M164.705 381.83H165.153V375.501H164.705V381.83Z" fill="#1A2E35"/>
<path d="M178.172 381.348L176.445 381.828H180.499L178.772 381.342V379.016C180.008 378.853 180.499 377.634 180.499 375.503H176.445C176.445 377.629 176.937 378.853 178.172 379.016V381.348Z" fill="#1A2E35"/>
<path d="M181.443 378.731H182.501V381.829H185.21V378.731H186.274L183.856 375.503L181.443 378.731Z" fill="#1A2E35"/>
<mask id="mask8_2746_21778" style="mask-type:luminance" maskUnits="userSpaceOnUse" x="160" y="377" width="50" height="10">
<path d="M160.211 377.991H209.81V386.013H160.211V377.991Z" fill="white"/>
</mask>
<g mask="url(#mask8_2746_21778)">
<g opacity="0.100006">
<path d="M160.211 386.013V383.571L209.811 377.99V386.009L160.211 386.013Z" fill="black"/>
</g>
</g>
<mask id="mask9_2746_21778" style="mask-type:luminance" maskUnits="userSpaceOnUse" x="180" y="346" width="10" height="41">
<path d="M180.348 346.406H189.672V386.007H180.348V346.406Z" fill="white"/>
</mask>
<g mask="url(#mask9_2746_21778)">
<g opacity="0.699997">
<path d="M189.672 346.406H180.348V386.008H189.672V346.406Z" fill="white"/>
</g>
</g>
<path d="M163.428 274.491H253.61V210.463H163.428V274.491Z" fill="#FFC800"/>
<mask id="mask10_2746_21778" style="mask-type:luminance" maskUnits="userSpaceOnUse" x="163" y="210" width="91" height="65">
<path d="M163.426 210.464H253.608V274.492H163.426V210.464Z" fill="white"/>
</mask>
<g mask="url(#mask10_2746_21778)">
<g opacity="0.100006">
<path d="M163.426 274.492H253.608V210.464H163.426V274.492Z" fill="black"/>
</g>
</g>
<mask id="mask11_2746_21778" style="mask-type:luminance" maskUnits="userSpaceOnUse" x="222" y="210" width="32" height="65">
<path d="M222.898 210.463H253.604V274.494H222.898V210.463Z" fill="white"/>
</mask>
<g mask="url(#mask11_2746_21778)">
<g opacity="0.199997">
<path d="M253.604 274.494H222.898V210.463H253.604V274.494Z" fill="black"/>
</g>
</g>
<path d="M251.489 270.084C249.215 265.53 246.959 260.964 244.728 256.381L238.066 242.609L231.49 228.777C229.308 224.159 227.151 219.524 225.014 214.875C227.288 219.428 229.543 223.994 231.774 228.578L238.435 242.35L245.011 256.182C247.192 260.8 249.35 265.436 251.489 270.084Z" fill="#FFC800"/>
<path d="M251.489 214.875C249.35 219.523 247.192 224.159 245.011 228.777L238.435 242.609L231.774 256.381C229.543 260.965 227.288 265.531 225.014 270.084C227.151 265.436 229.308 260.8 231.49 256.182L238.066 242.35L244.728 228.578C246.959 223.995 249.215 219.429 251.489 214.875Z" fill="#FFC800"/>
<mask id="mask12_2746_21778" style="mask-type:luminance" maskUnits="userSpaceOnUse" x="187" y="210" width="10" height="65">
<path d="M187.141 210.463H196.465V274.494H187.141V210.463Z" fill="white"/>
</mask>
<g mask="url(#mask12_2746_21778)">
<g opacity="0.699997">
<path d="M196.465 274.494H187.141V210.463H196.465V274.494Z" fill="white"/>
</g>
</g>
<mask id="mask13_2746_21778" style="mask-type:luminance" maskUnits="userSpaceOnUse" x="234" y="210" width="8" height="65">
<path d="M234.602 210.463H241.907V274.494H234.602V210.463Z" fill="white"/>
</mask>
<g mask="url(#mask13_2746_21778)">
<g opacity="0.699997">
<path d="M241.907 274.494H234.602V210.463H241.907V274.494Z" fill="white"/>
</g>
</g>
<path d="M176.539 270.313H176.987V263.985H176.539V270.313Z" fill="#1A2E35"/>
<path d="M175.463 270.313H175.911V263.985H175.463V270.313Z" fill="#1A2E35"/>
<path d="M174.385 270.313H174.833V263.985H174.385V270.313Z" fill="#1A2E35"/>
<path d="M173.309 270.313H173.758V263.985H173.309V270.313Z" fill="#1A2E35"/>
<path d="M172.23 270.313H172.679V263.985H172.23V270.313Z" fill="#1A2E35"/>
<path d="M171.156 270.313H171.605V263.985H171.156V270.313Z" fill="#1A2E35"/>
<path d="M170.078 270.313H170.526V263.985H170.078V270.313Z" fill="#1A2E35"/>
<path d="M169 270.313H169.449V263.985H169V270.313Z" fill="#1A2E35"/>
<path d="M167.924 270.313H168.372V263.985H167.924V270.313Z" fill="#1A2E35"/>
<path d="M181.393 269.831L179.666 270.312H183.72L181.993 269.825V267.5C183.228 267.338 183.72 266.118 183.72 263.985H179.666C179.666 266.113 180.157 267.338 181.393 267.5V269.831Z" fill="#1A2E35"/>
<path d="M184.662 267.213H185.721V270.312H188.43V267.213H189.493L187.074 263.985L184.662 267.213Z" fill="#1A2E35"/>
<mask id="mask14_2746_21778" style="mask-type:luminance" maskUnits="userSpaceOnUse" x="163" y="266" width="60" height="9">
<path d="M163.426 266.472H222.897V274.494H163.426V266.472Z" fill="white"/>
</mask>
<g mask="url(#mask14_2746_21778)">
<g opacity="0.100006">
<path d="M163.426 274.494V272.053L222.898 266.473V274.49L163.426 274.494Z" fill="black"/>
</g>
</g>
<path d="M211.883 386.008H302.065V335.625H211.883V386.008Z" fill="#FFC800"/>
<mask id="mask15_2746_21778" style="mask-type:luminance" maskUnits="userSpaceOnUse" x="211" y="335" width="92" height="52">
<path d="M211.885 335.624H302.067V386.007H211.885V335.624Z" fill="white"/>
</mask>
<g mask="url(#mask15_2746_21778)">
<g opacity="0.100006">
<path d="M211.885 386.007H302.067V335.624H211.885V386.007Z" fill="black"/>
</g>
</g>
<mask id="mask16_2746_21778" style="mask-type:luminance" maskUnits="userSpaceOnUse" x="271" y="335" width="32" height="52">
<path d="M271.355 335.627H302.061V386.013H271.355V335.627Z" fill="white"/>
</mask>
<g mask="url(#mask16_2746_21778)">
<g opacity="0.199997">
<path d="M302.061 386.013H271.355V335.627H302.061V386.013Z" fill="black"/>
</g>
</g>
<path d="M299.948 381.6C297.674 378.077 295.418 374.544 293.187 370.998L286.525 360.344L279.949 349.642C277.768 346.07 275.61 342.484 273.473 338.888C275.747 342.409 278.002 345.942 280.233 349.488L286.894 360.143L293.47 370.845C295.651 374.417 297.809 378.004 299.948 381.6Z" fill="#FFC800"/>
<path d="M299.948 338.888C297.809 342.483 295.651 346.07 293.47 349.642L286.894 360.344L280.233 370.999C278.002 374.545 275.747 378.078 273.473 381.6C275.61 378.004 277.768 374.417 279.949 370.845L286.525 360.143L293.187 349.489C295.418 345.943 297.674 342.41 299.948 338.888Z" fill="#FFC800"/>
<mask id="mask17_2746_21778" style="mask-type:luminance" maskUnits="userSpaceOnUse" x="235" y="335" width="10" height="52">
<path d="M235.6 335.627H244.924V386.013H235.6V335.627Z" fill="white"/>
</mask>
<g mask="url(#mask17_2746_21778)">
<g opacity="0.699997">
<path d="M244.924 386.013H235.6V335.627H244.924V386.013Z" fill="white"/>
</g>
</g>
<mask id="mask18_2746_21778" style="mask-type:luminance" maskUnits="userSpaceOnUse" x="283" y="335" width="8" height="52">
<path d="M283.061 335.627H290.366V386.013H283.061V335.627Z" fill="white"/>
</mask>
<g mask="url(#mask18_2746_21778)">
<g opacity="0.699997">
<path d="M290.366 386.013H283.061V335.627H290.366V386.013Z" fill="white"/>
</g>
</g>
<path d="M224.996 381.83H225.444V375.502H224.996V381.83Z" fill="#1A2E35"/>
<path d="M223.92 381.83H224.368V375.502H223.92V381.83Z" fill="#1A2E35"/>
<path d="M222.842 381.83H223.29V375.502H222.842V381.83Z" fill="#1A2E35"/>
<path d="M221.766 381.83H222.214V375.502H221.766V381.83Z" fill="#1A2E35"/>
<path d="M220.689 381.83H221.138V375.502H220.689V381.83Z" fill="#1A2E35"/>
<path d="M219.611 381.83H220.06V375.502H219.611V381.83Z" fill="#1A2E35"/>
<path d="M218.535 381.83H218.983V375.502H218.535V381.83Z" fill="#1A2E35"/>
<path d="M217.459 381.83H217.907V375.502H217.459V381.83Z" fill="#1A2E35"/>
<path d="M216.381 381.83H216.829V375.502H216.381V381.83Z" fill="#1A2E35"/>
<path d="M229.848 381.348L228.121 381.828H232.175L230.448 381.342V379.016C231.684 378.853 232.175 377.634 232.175 375.502H228.121C228.121 377.629 228.612 378.853 229.848 379.016V381.348Z" fill="#1A2E35"/>
<path d="M233.121 378.73H234.179V381.828H236.888V378.73H237.952L235.533 375.502L233.121 378.73Z" fill="#1A2E35"/>
<mask id="mask19_2746_21778" style="mask-type:luminance" maskUnits="userSpaceOnUse" x="211" y="377" width="61" height="10">
<path d="M211.885 377.991H271.357V386.013H211.885V377.991Z" fill="white"/>
</mask>
<g mask="url(#mask19_2746_21778)">
<g opacity="0.100006">
<path d="M211.885 386.013V383.571L271.357 377.991V386.009L211.885 386.013Z" fill="black"/>
</g>
</g>
<path d="M246.472 327.115H137.439V274.495H246.472V327.115Z" fill="#FFC800"/>
<mask id="mask20_2746_21778" style="mask-type:luminance" maskUnits="userSpaceOnUse" x="137" y="274" width="110" height="54">
<path d="M137.439 274.493H246.472V327.113H137.439V274.493Z" fill="white"/>
</mask>
<g mask="url(#mask20_2746_21778)">
<g opacity="0.100006">
<path d="M246.472 327.113H137.439V274.493H246.472V327.113Z" fill="black"/>
</g>
</g>
<mask id="mask21_2746_21778" style="mask-type:luminance" maskUnits="userSpaceOnUse" x="137" y="274" width="110" height="54">
<path d="M137.439 274.493H246.472V327.113H137.439V274.493Z" fill="white"/>
</mask>
<g mask="url(#mask21_2746_21778)">
<g opacity="0.100006">
<path d="M246.472 327.113H137.439V274.493H246.472V327.113Z" fill="black"/>
</g>
</g>
<mask id="mask22_2746_21778" style="mask-type:luminance" maskUnits="userSpaceOnUse" x="137" y="274" width="32" height="54">
<path d="M137.445 274.495H168.151V327.119H137.445V274.495Z" fill="white"/>
</mask>
<g mask="url(#mask22_2746_21778)">
<g opacity="0.5">
<path d="M137.445 327.119H168.151V274.495H137.445V327.119Z" fill="#FFC800"/>
</g>
</g>
<path d="M139.559 322.708C141.832 318.863 144.088 315.007 146.319 311.137L152.981 299.507L159.557 287.827C161.738 283.927 163.896 280.013 166.033 276.087C163.76 279.932 161.504 283.788 159.273 287.658L152.612 299.288L146.036 310.969C143.854 314.869 141.697 318.783 139.559 322.708Z" fill="#FFC800"/>
<path d="M139.559 276.087C141.697 280.012 143.854 283.926 146.036 287.826L152.612 299.507L159.273 311.137C161.504 315.007 163.76 318.863 166.033 322.708C163.896 318.782 161.738 314.868 159.557 310.968L152.981 299.288L146.319 287.658C144.088 283.788 141.832 279.932 139.559 276.087Z" fill="#FFC800"/>
<path d="M233.358 322.937H232.91V316.607H233.358V322.937Z" fill="#1A2E35"/>
<path d="M234.437 322.937H233.988V316.607H234.437V322.937Z" fill="#1A2E35"/>
<path d="M235.513 322.937H235.064V316.607H235.513V322.937Z" fill="#1A2E35"/>
<path d="M236.592 322.937H236.143V316.607H236.592V322.937Z" fill="#1A2E35"/>
<path d="M237.667 322.937H237.219V316.607H237.667V322.937Z" fill="#1A2E35"/>
<path d="M238.743 322.937H238.295V316.607H238.743V322.937Z" fill="#1A2E35"/>
<path d="M239.821 322.937H239.373V316.607H239.821V322.937Z" fill="#1A2E35"/>
<path d="M240.898 322.937H240.449V316.607H240.898V322.937Z" fill="#1A2E35"/>
<path d="M241.974 322.937H241.525V316.607H241.974V322.937Z" fill="#1A2E35"/>
<path d="M228.504 322.454L230.231 322.935H226.178L227.905 322.448V320.122C226.669 319.96 226.178 318.741 226.178 316.608H230.231C230.231 318.735 229.74 319.96 228.504 320.122V322.454Z" fill="#1A2E35"/>
<path d="M225.235 319.836H224.177V322.935H221.467V319.836H220.404L222.822 316.608L225.235 319.836Z" fill="#1A2E35"/>
<mask id="mask23_2746_21778" style="mask-type:luminance" maskUnits="userSpaceOnUse" x="168" y="319" width="79" height="9">
<path d="M168.15 319.097H246.473V327.119H168.15V319.097Z" fill="white"/>
</mask>
<g mask="url(#mask23_2746_21778)">
<g opacity="0.100006">
<path d="M246.473 327.119V324.678L168.15 319.097V327.115L246.473 327.119Z" fill="black"/>
</g>
</g>
<path d="M241.799 327.118H393.572V226.05H241.799V327.118Z" fill="#FFC800"/>
<mask id="mask24_2746_21778" style="mask-type:luminance" maskUnits="userSpaceOnUse" x="241" y="226" width="153" height="102">
<path d="M241.797 226.051H393.57V327.119H241.797V226.051Z" fill="white"/>
</mask>
<g mask="url(#mask24_2746_21778)">
<g opacity="0.100006">
<path d="M241.797 327.119H393.57V226.051H241.797V327.119Z" fill="black"/>
</g>
</g>
<mask id="mask25_2746_21778" style="mask-type:luminance" maskUnits="userSpaceOnUse" x="326" y="226" width="68" height="102">
<path d="M326.354 226.049H393.569V327.121H326.354V226.049Z" fill="white"/>
</mask>
<g mask="url(#mask25_2746_21778)">
<g opacity="0.199997">
<path d="M393.569 327.121H326.354V226.049H393.569V327.121Z" fill="black"/>
</g>
</g>
<path d="M390.264 322.712C385.076 315.055 379.931 307.376 374.841 299.669L359.642 276.51L344.639 253.249C339.662 245.483 334.74 237.689 329.861 229.872C335.051 237.527 340.196 245.206 345.286 252.914L360.483 276.074L375.487 299.335C380.463 307.101 385.385 314.895 390.264 322.712Z" fill="#FFC800"/>
<path d="M390.264 229.871C385.385 237.688 380.463 245.482 375.487 253.247L360.483 276.509L345.286 299.669C340.196 307.376 335.051 315.056 329.861 322.711C334.74 314.894 339.662 307.1 344.639 299.334L359.642 276.073L374.841 252.914C379.931 245.206 385.076 237.528 390.264 229.871Z" fill="#FFC800"/>
<mask id="mask26_2746_21778" style="mask-type:luminance" maskUnits="userSpaceOnUse" x="277" y="226" width="10" height="57">
<path d="M277.564 226.054H286.892V282.501H277.564V226.054Z" fill="white"/>
</mask>
<g mask="url(#mask26_2746_21778)">
<g opacity="0.699997">
<path d="M286.892 282.501H277.564V226.053H286.892V282.501Z" fill="white"/>
</g>
</g>
<path d="M254.912 322.94H255.36V316.611H254.912V322.94Z" fill="#1A2E35"/>
<path d="M253.836 322.94H254.284V316.611H253.836V322.94Z" fill="#1A2E35"/>
<path d="M252.758 322.94H253.206V316.611H252.758V322.94Z" fill="#1A2E35"/>
<path d="M251.682 322.94H252.131V316.611H251.682V322.94Z" fill="#1A2E35"/>
<path d="M250.605 322.94H251.055V316.611H250.605V322.94Z" fill="#1A2E35"/>
<path d="M249.527 322.94H249.977V316.611H249.527V322.94Z" fill="#1A2E35"/>
<path d="M248.451 322.94H248.9V316.611H248.451V322.94Z" fill="#1A2E35"/>
<path d="M247.373 322.94H247.821V316.611H247.373V322.94Z" fill="#1A2E35"/>
<path d="M246.295 322.94H246.743V316.611H246.295V322.94Z" fill="#1A2E35"/>
<path d="M259.764 322.459L258.037 322.939H262.091L260.364 322.453V320.127C261.6 319.965 262.091 318.745 262.091 316.614H258.037C258.037 318.74 258.528 319.965 259.764 320.127V322.459Z" fill="#1A2E35"/>
<path d="M263.035 319.841H264.093V322.939H266.802V319.841H267.866L265.447 316.613L263.035 319.841Z" fill="#1A2E35"/>
<mask id="mask27_2746_21778" style="mask-type:luminance" maskUnits="userSpaceOnUse" x="241" y="319" width="86" height="9">
<path d="M241.797 319.099H326.351V327.121H241.797V319.099Z" fill="white"/>
</mask>
<g mask="url(#mask27_2746_21778)">
<g opacity="0.100006">
<path d="M241.797 327.121V324.68L326.351 319.1V327.117L241.797 327.121Z" fill="black"/>
</g>
</g>
<path d="M191.793 327.118H272.103V287.516H191.793V327.118Z" fill="#FFC800"/>
<mask id="mask28_2746_21778" style="mask-type:luminance" maskUnits="userSpaceOnUse" x="191" y="287" width="82" height="41">
<path d="M191.795 287.517H272.105V327.119H191.795V287.517Z" fill="white"/>
</mask>
<g mask="url(#mask28_2746_21778)">
<g opacity="0.100006">
<path d="M191.795 327.119H272.105V287.517H191.795V327.119Z" fill="black"/>
</g>
</g>
<mask id="mask29_2746_21778" style="mask-type:luminance" maskUnits="userSpaceOnUse" x="241" y="287" width="32" height="41">
<path d="M241.395 287.515H272.1V327.121H241.395V287.515Z" fill="white"/>
</mask>
<g mask="url(#mask29_2746_21778)">
<g opacity="0.199997">
<path d="M272.1 327.121H241.395V287.515H272.1V327.121Z" fill="black"/>
</g>
</g>
<path d="M269.983 324.439C267.709 321.629 265.453 318.81 263.222 315.98L256.561 307.479L249.984 298.941C247.803 296.09 245.645 293.229 243.508 290.359C245.782 293.169 248.037 295.989 250.268 298.817L256.929 307.319L263.505 315.858C265.686 318.708 267.844 321.57 269.983 324.439Z" fill="#FFC800"/>
<path d="M269.983 290.359C267.844 293.229 265.686 296.09 263.505 298.94L256.929 307.479L250.268 315.98C248.037 318.81 245.782 321.629 243.508 324.439C245.645 321.57 247.803 318.708 249.984 315.858L256.561 307.319L263.222 298.818C265.453 295.989 267.709 293.17 269.983 290.359Z" fill="#FFC800"/>
<path d="M204.906 322.94H205.355V316.611H204.906V322.94Z" fill="#1A2E35"/>
<path d="M203.83 322.94H204.278V316.611H203.83V322.94Z" fill="#1A2E35"/>
<path d="M202.752 322.94H203.2V316.611H202.752V322.94Z" fill="#1A2E35"/>
<path d="M201.676 322.94H202.124V316.611H201.676V322.94Z" fill="#1A2E35"/>
<path d="M200.598 322.94H201.047V316.611H200.598V322.94Z" fill="#1A2E35"/>
<path d="M199.521 322.94H199.97V316.611H199.521V322.94Z" fill="#1A2E35"/>
<path d="M198.445 322.94H198.894V316.611H198.445V322.94Z" fill="#1A2E35"/>
<path d="M197.367 322.94H197.816V316.611H197.367V322.94Z" fill="#1A2E35"/>
<path d="M196.291 322.94H196.739V316.611H196.291V322.94Z" fill="#1A2E35"/>
<path d="M209.758 322.459L208.031 322.939H212.085L210.358 322.453V320.127C211.594 319.965 212.085 318.745 212.085 316.614H208.031C208.031 318.74 208.522 319.965 209.758 320.127V322.459Z" fill="#1A2E35"/>
<path d="M213.031 319.841H214.089V322.939H216.798V319.841H217.862L215.444 316.613L213.031 319.841Z" fill="#1A2E35"/>
<mask id="mask30_2746_21778" style="mask-type:luminance" maskUnits="userSpaceOnUse" x="191" y="319" width="51" height="9">
<path d="M191.795 319.099H241.395V327.121H191.795V319.099Z" fill="white"/>
</mask>
<g mask="url(#mask30_2746_21778)">
<g opacity="0.100006">
<path d="M191.795 327.121V324.68L241.395 319.099V327.117L191.795 327.121Z" fill="black"/>
</g>
</g>
<mask id="mask31_2746_21778" style="mask-type:luminance" maskUnits="userSpaceOnUse" x="211" y="287" width="11" height="16">
<path d="M211.932 287.517H221.256V302.962H211.932V287.517Z" fill="white"/>
</mask>
<g mask="url(#mask31_2746_21778)">
<g opacity="0.699997">
<path d="M221.256 287.517H211.932V302.962H221.256V287.517Z" fill="white"/>
</g>
</g>
</g>
<mask id="mask32_2746_21778" style="mask-type:luminance" maskUnits="userSpaceOnUse" x="0" y="0" width="488" height="488">
<path d="M0 0H487.334V487.334H0V0Z" fill="white"/>
</mask>
<g mask="url(#mask32_2746_21778)">
<path d="M214.416 139.447L193.029 151.774H187.052L184.81 133.906C181.926 128.893 182.954 122.698 186.938 118.859V115.404H192.905C193.071 115.393 193.247 115.393 193.413 115.393C197.689 115.393 201.839 117.614 204.122 121.578L214.416 139.447Z" fill="#375A64"/>
<mask id="mask33_2746_21778" style="mask-type:luminance" maskUnits="userSpaceOnUse" x="183" y="115" width="32" height="37">
<path d="M183.158 115.394H214.41V151.775H183.158V115.394Z" fill="white"/>
</mask>
<g mask="url(#mask33_2746_21778)">
<g opacity="0.100006">
<path d="M214.41 139.448L193.023 151.775H187.046L184.804 133.907C181.92 128.894 182.948 122.699 186.932 118.86V115.405H192.899C193.065 115.394 193.241 115.394 193.407 115.394C197.683 115.394 201.833 117.615 204.117 121.579L214.41 139.448Z" fill="black"/>
</g>
</g>
<path d="M208.443 139.444L187.055 151.77L176.758 133.902C173.355 127.996 175.383 120.45 181.289 117.046C187.196 113.641 194.743 115.671 198.146 121.576L208.443 139.444Z" fill="#375A64"/>
<mask id="mask34_2746_21778" style="mask-type:luminance" maskUnits="userSpaceOnUse" x="183" y="124" width="5" height="5">
<path d="M183.594 124.15H187.964V128.521H183.594V124.15Z" fill="white"/>
</mask>
<g mask="url(#mask34_2746_21778)">
<g opacity="0.100006">
<path d="M187.964 126.336C187.964 127.543 186.986 128.521 185.779 128.521C184.571 128.521 183.594 127.543 183.594 126.336C183.594 125.13 184.571 124.151 185.779 124.151C186.986 124.151 187.964 125.13 187.964 126.336Z" fill="black"/>
</g>
</g>
<path d="M185.936 116.83C191.33 115.209 196.343 119.63 198.605 124.173C200.421 127.423 202.327 131.085 204.003 134.433C204.554 135.601 205.135 136.752 205.658 137.938C204.93 136.868 204.26 135.766 203.559 134.68L201.553 131.368C197.785 125.4 194.633 115.846 185.936 116.83Z" fill="white"/>
<path d="M233.137 423.477C228.401 423.477 224.491 419.772 224.236 415.043L222.541 388.07H243.732L242.038 415.043C241.783 419.772 237.874 423.477 233.137 423.477Z" fill="#A8A8A8"/>
<mask id="mask35_2746_21778" style="mask-type:luminance" maskUnits="userSpaceOnUse" x="222" y="388" width="22" height="36">
<path d="M222.543 388.068H243.735V423.476H222.543V388.068Z" fill="white"/>
</mask>
<g mask="url(#mask35_2746_21778)">
<g opacity="0.300003">
<path d="M233.139 423.476C228.403 423.476 224.493 419.771 224.238 415.042L222.543 388.069H243.734L242.04 415.042C241.785 419.771 237.875 423.476 233.139 423.476Z" fill="black"/>
</g>
</g>
<path d="M229.394 418.381C225.314 415.318 228.136 408.582 233.135 408.943C234.632 409.003 236.046 409.768 236.876 410.898C231.741 407.115 225.608 413.25 229.394 418.381Z" fill="#DCDCDC"/>
<mask id="mask36_2746_21778" style="mask-type:luminance" maskUnits="userSpaceOnUse" x="229" y="410" width="10" height="11">
<path d="M229.395 410.898H238.831V420.35H229.395V410.898Z" fill="white"/>
</mask>
<g mask="url(#mask36_2746_21778)">
<g opacity="0.100006">
<path d="M236.877 410.898C240.957 413.959 238.134 420.697 233.135 420.336C231.638 420.276 230.225 419.511 229.395 418.38C234.53 422.164 240.663 416.029 236.877 410.898Z" fill="black"/>
</g>
</g>
<path d="M368.504 423.477C363.767 423.477 359.858 419.772 359.603 415.043L357.908 388.07H379.099L377.404 415.043C377.15 419.772 373.24 423.477 368.504 423.477Z" fill="#A8A8A8"/>
<mask id="mask37_2746_21778" style="mask-type:luminance" maskUnits="userSpaceOnUse" x="357" y="388" width="23" height="36">
<path d="M357.906 388.068H379.098V423.476H357.906V388.068Z" fill="white"/>
</mask>
<g mask="url(#mask37_2746_21778)">
<g opacity="0.300003">
<path d="M368.502 423.476C363.765 423.476 359.856 419.771 359.601 415.042L357.906 388.069H379.097L377.403 415.042C377.148 419.771 373.238 423.476 368.502 423.476Z" fill="black"/>
</g>
</g>
<path d="M364.765 418.381C360.685 415.318 363.507 408.582 368.506 408.943C370.004 409.003 371.417 409.768 372.247 410.898C367.112 407.115 360.979 413.25 364.765 418.381Z" fill="#DCDCDC"/>
<mask id="mask38_2746_21778" style="mask-type:luminance" maskUnits="userSpaceOnUse" x="364" y="410" width="11" height="11">
<path d="M364.764 410.898H374.2V420.35H364.764V410.898Z" fill="white"/>
</mask>
<g mask="url(#mask38_2746_21778)">
<g opacity="0.100006">
<path d="M372.246 410.898C376.326 413.959 373.504 420.697 368.504 420.336C367.007 420.276 365.594 419.511 364.764 418.38C369.899 422.164 376.032 416.029 372.246 410.898Z" fill="black"/>
</g>
</g>
<path d="M177.17 423.477C172.433 423.477 168.524 419.772 168.269 415.043L166.574 390.145H187.765L186.071 415.043C185.816 419.772 181.907 423.477 177.17 423.477Z" fill="#A8A8A8"/>
<mask id="mask39_2746_21778" style="mask-type:luminance" maskUnits="userSpaceOnUse" x="166" y="390" width="22" height="34">
<path d="M166.574 390.145H187.766V423.477H166.574V390.145Z" fill="white"/>
</mask>
<g mask="url(#mask39_2746_21778)">
<g opacity="0.100006">
<path d="M177.17 423.477C172.433 423.477 168.524 419.772 168.269 415.043L166.574 390.145H187.765L186.071 415.043C185.816 419.772 181.907 423.477 177.17 423.477Z" fill="black"/>
</g>
</g>
<path d="M173.431 418.381C169.351 415.318 172.173 408.582 177.172 408.943C178.67 409.003 180.083 409.768 180.913 410.898C175.778 407.115 169.645 413.25 173.431 418.381Z" fill="#DCDCDC"/>
<mask id="mask40_2746_21778" style="mask-type:luminance" maskUnits="userSpaceOnUse" x="173" y="410" width="10" height="11">
<path d="M173.432 410.898H182.868V420.35H173.432V410.898Z" fill="white"/>
</mask>
<g mask="url(#mask40_2746_21778)">
<g opacity="0.100006">
<path d="M180.914 410.898C184.994 413.959 182.171 420.697 177.172 420.336C175.675 420.276 174.262 419.511 173.432 418.38C178.567 422.164 184.7 416.029 180.914 410.898Z" fill="black"/>
</g>
</g>
<path d="M162.979 331.274H141.161C134.608 331.274 129.001 326.815 127.524 320.432L89.0135 162.962L69.8359 129.631L73.4334 127.56L92.9054 161.403L131.562 319.47C132.607 323.987 136.551 327.123 141.161 327.123H162.979V331.274Z" fill="#C8C8C8"/>
<path d="M122.872 212.887L150.763 316.109C152.514 322.593 158.43 327.123 165.149 327.123H335.177L347.108 230.793L122.872 212.887ZM338.844 331.274H165.149C156.559 331.274 148.996 325.483 146.756 317.191L105.607 164.899L81.875 129.757L85.3146 127.434L109.434 163.148L121.722 208.632L351.76 227.001L338.844 331.274Z" fill="#C8C8C8"/>
<path d="M339.361 327.123H392.506C395.076 327.123 397.261 325.2 397.588 322.65L397.614 322.489L416.686 230.972H351.269L339.361 327.123ZM392.506 331.274H334.664L347.601 226.821H421.792L401.693 323.262C401.065 327.836 397.131 331.274 392.506 331.274Z" fill="#C8C8C8"/>
<path d="M186.773 331.274H183.501C177.568 331.274 172.409 327.257 170.955 321.504L143.352 212.294L147.376 211.276L174.979 320.487C175.967 324.394 179.472 327.123 183.501 327.123H186.773V331.274Z" fill="#C8C8C8"/>
<path d="M216.516 331.274H213.244C207.311 331.274 202.153 327.257 200.698 321.504L173.096 212.294L177.119 211.276L204.723 320.487C205.71 324.394 209.214 327.123 213.244 327.123H216.516V331.274Z" fill="#C8C8C8"/>
<path d="M246.257 331.274H242.986C237.053 331.274 231.893 327.257 230.44 321.504L203.891 216.467L207.915 215.45L234.463 320.487C235.451 324.394 238.955 327.123 242.986 327.123H246.257V331.274Z" fill="#C8C8C8"/>
<path d="M275.998 331.274H272.877C266.838 331.274 261.658 327.168 260.279 321.289L236.857 221.42L240.898 220.472L264.32 320.341C265.256 324.335 268.775 327.123 272.877 327.123H275.998V331.274Z" fill="#C8C8C8"/>
<path d="M305.741 331.274H302.803C296.734 331.274 291.41 326.964 290.147 321.027L269.297 223.092L273.356 222.228L294.206 320.164C295.065 324.196 298.68 327.123 302.803 327.123H305.741V331.274Z" fill="#C8C8C8"/>
<path d="M335.482 331.274H332.896C326.583 331.274 321.221 326.76 320.146 320.539L303.695 225.472L307.785 224.766L324.235 319.833C324.966 324.057 328.609 327.123 332.896 327.123H335.482V331.274Z" fill="#C8C8C8"/>
<path d="M339.475 331.274H337.012V327.123H339.475C343.511 327.123 346.941 324.236 347.629 320.259L363.299 229.697L367.389 230.405L351.718 320.966C350.685 326.939 345.536 331.274 339.475 331.274Z" fill="#C8C8C8"/>
<path d="M353.642 331.274H351.178V327.123H353.642C357.678 327.123 361.107 324.236 361.795 320.259L378.507 229.675L382.589 230.427L365.881 320.99C364.852 326.939 359.703 331.274 353.642 331.274Z" fill="#C8C8C8"/>
<path d="M367.807 331.274H365.344V327.123H367.807C371.843 327.123 375.272 324.236 375.96 320.259L393.714 229.652L397.788 230.451L380.042 321.012C379.017 326.939 373.868 331.274 367.807 331.274Z" fill="#C8C8C8"/>
<path d="M381.973 331.274H379.51V327.123H381.973C386.01 327.123 389.439 324.236 390.127 320.259L408.923 229.629L412.988 230.472L394.204 321.035C393.183 326.939 388.034 331.274 381.973 331.274Z" fill="#C8C8C8"/>
<path d="M380.55 390.166H352.385C347.022 390.166 342.822 384.701 342.822 377.724V369.735C342.822 367.273 343.368 364.892 344.401 362.851L359.67 332.678C361.431 329.199 364.415 327.123 367.654 327.123H381.336V331.273H367.654C366.014 331.273 364.413 332.499 363.374 334.552L348.105 364.725C347.375 366.168 346.972 367.947 346.972 369.735V377.724C346.972 382.22 349.451 386.015 352.385 386.015H380.55V390.166Z" fill="#A8A8A8"/>
<path d="M392.068 390.166H152.976C146.105 390.166 140.535 384.596 140.535 377.725V369.735C140.535 367.181 141.322 364.689 142.788 362.598L163.926 332.425C166.255 329.101 170.058 327.123 174.115 327.123H193.057V331.273H174.115C171.414 331.273 168.876 332.593 167.327 334.806L146.187 364.979C145.211 366.373 144.686 368.034 144.686 369.736V377.724C144.686 382.303 148.398 386.015 152.977 386.015H392.068C393.214 386.015 394.143 386.945 394.143 388.091C394.143 389.237 393.214 390.166 392.068 390.166Z" fill="#C8C8C8"/>
<path d="M171.004 387.12C193.921 386.423 216.991 386.423 239.914 387.12C216.989 387.818 193.923 387.818 171.004 387.12Z" fill="white"/>
<path d="M165.373 332.714C159.455 342.295 152.896 351.556 145.822 360.32C151.741 350.737 158.3 341.477 165.373 332.714Z" fill="white"/>
<path d="M322.943 390.166H256.184C249.325 390.166 243.744 384.585 243.744 377.724V369.735C243.744 367.169 244.523 364.7 245.996 362.598L267.135 332.425C269.462 329.104 273.27 327.123 277.324 327.123H296.266V331.273H277.324C274.623 331.273 272.085 332.593 270.535 334.806L249.395 364.979C248.414 366.38 247.894 368.024 247.894 369.735V377.724C247.894 382.297 251.614 386.015 256.184 386.015H322.943V390.166Z" fill="#C8C8C8"/>
<path d="M186.678 415.415C186.678 426.881 179.105 436.177 169.763 436.177C160.421 436.177 152.848 426.881 152.848 415.415C152.848 403.948 160.421 394.653 169.763 394.653C179.105 394.653 186.678 403.948 186.678 415.415Z" fill="#1A2E35"/>
<path d="M196.214 415.418C196.214 426.884 188.141 436.172 178.187 436.172H169.053V394.654H178.187C188.141 394.654 196.214 403.952 196.214 415.418Z" fill="#1A2E35"/>
<path d="M170.787 395.859C181.36 395.278 186.683 406.216 186.961 415.414C187.263 422.395 184.063 430.082 177.633 433.465C175.525 434.576 173.123 435.14 170.787 434.969V434.865C175.459 434.541 179.517 431.806 182.115 428.151C187.396 420.883 188.182 409.752 182.212 402.605C180.82 400.819 179.172 399.234 177.235 398.066C175.311 396.884 173.101 396.159 170.787 395.963V395.859Z" fill="#2B454E"/>
<path d="M169.492 423.477C164.755 423.477 160.846 419.772 160.591 415.043L158.896 390.145H180.088L178.393 415.043C178.138 419.772 174.229 423.477 169.492 423.477Z" fill="#A8A8A8"/>
<path d="M165.751 418.381C161.671 415.318 164.494 408.582 169.493 408.943C170.99 409.003 172.403 409.768 173.234 410.898C168.098 407.115 161.965 413.25 165.751 418.381Z" fill="#DCDCDC"/>
<mask id="mask41_2746_21778" style="mask-type:luminance" maskUnits="userSpaceOnUse" x="165" y="410" width="11" height="11">
<path d="M165.75 410.898H175.187V420.35H165.75V410.898Z" fill="white"/>
</mask>
<g mask="url(#mask41_2746_21778)">
<g opacity="0.100006">
<path d="M173.233 410.898C177.312 413.959 174.49 420.697 169.491 420.336C167.994 420.276 166.58 419.511 165.75 418.38C170.886 422.164 177.018 416.029 173.233 410.898Z" fill="black"/>
</g>
</g>
<path d="M291.219 423.477C286.482 423.477 282.572 419.772 282.318 415.043L280.623 390.145H301.814L300.119 415.043C299.865 419.772 295.956 423.477 291.219 423.477Z" fill="#A8A8A8"/>
<mask id="mask42_2746_21778" style="mask-type:luminance" maskUnits="userSpaceOnUse" x="280" y="390" width="22" height="34">
<path d="M280.623 390.145H301.814V423.477H280.623V390.145Z" fill="white"/>
</mask>
<g mask="url(#mask42_2746_21778)">
<g opacity="0.100006">
<path d="M291.219 423.477C286.482 423.477 282.572 419.772 282.318 415.043L280.623 390.145H301.814L300.119 415.043C299.865 419.772 295.956 423.477 291.219 423.477Z" fill="black"/>
</g>
</g>
<path d="M287.476 418.381C283.396 415.318 286.218 408.582 291.217 408.943C292.714 409.003 294.128 409.768 294.958 410.898C289.823 407.115 283.69 413.25 287.476 418.381Z" fill="#DCDCDC"/>
<mask id="mask43_2746_21778" style="mask-type:luminance" maskUnits="userSpaceOnUse" x="287" y="410" width="10" height="11">
<path d="M287.473 410.898H296.91V420.35H287.473V410.898Z" fill="white"/>
</mask>
<g mask="url(#mask43_2746_21778)">
<g opacity="0.100006">
<path d="M294.955 410.898C299.035 413.959 296.213 420.697 291.213 420.336C289.716 420.276 288.303 419.511 287.473 418.38C292.608 422.164 298.741 416.029 294.955 410.898Z" fill="black"/>
</g>
</g>
<path d="M300.723 415.415C300.723 426.881 293.15 436.177 283.808 436.177C274.466 436.177 266.893 426.881 266.893 415.415C266.893 403.948 274.466 394.653 283.808 394.653C293.15 394.653 300.723 403.948 300.723 415.415Z" fill="#1A2E35"/>
<path d="M310.262 415.418C310.262 426.884 302.188 436.172 292.235 436.172H283.102V394.654H292.235C302.188 394.654 310.262 403.952 310.262 415.418Z" fill="#1A2E35"/>
<path d="M284.836 395.859C295.409 395.278 300.732 406.216 301.01 415.414C301.312 422.395 298.113 430.082 291.682 433.465C289.574 434.576 287.172 435.14 284.836 434.969V434.865C289.508 434.541 293.566 431.806 296.164 428.151C301.445 420.883 302.231 409.752 296.261 402.605C294.869 400.819 293.221 399.234 291.283 398.066C289.359 396.884 287.15 396.159 284.836 395.963V395.859Z" fill="#2B454E"/>
<path d="M283.539 423.477C278.802 423.477 274.893 419.772 274.638 415.043L272.943 390.145H294.135L292.44 415.043C292.185 419.772 288.276 423.477 283.539 423.477Z" fill="#A8A8A8"/>
<path d="M279.8 418.381C275.72 415.318 278.543 408.582 283.542 408.943C285.039 409.003 286.452 409.768 287.282 410.898C282.147 407.115 276.014 413.25 279.8 418.381Z" fill="#DCDCDC"/>
<mask id="mask44_2746_21778" style="mask-type:luminance" maskUnits="userSpaceOnUse" x="279" y="410" width="11" height="11">
<path d="M279.801 410.898H289.237V420.35H279.801V410.898Z" fill="white"/>
</mask>
<g mask="url(#mask44_2746_21778)">
<g opacity="0.100006">
<path d="M287.283 410.898C291.363 413.959 288.541 420.697 283.542 420.336C282.044 420.276 280.631 419.511 279.801 418.38C284.936 422.164 291.069 416.029 287.283 410.898Z" fill="black"/>
</g>
</g>
<path d="M378.01 415.415C378.01 426.881 370.437 436.177 361.095 436.177C351.753 436.177 344.18 426.881 344.18 415.415C344.18 403.948 351.753 394.653 361.095 394.653C370.437 394.653 378.01 403.948 378.01 415.415Z" fill="#1A2E35"/>
<mask id="mask45_2746_21778" style="mask-type:luminance" maskUnits="userSpaceOnUse" x="344" y="394" width="35" height="43">
<path d="M344.182 394.653H378.012V436.177H344.182V394.653Z" fill="white"/>
</mask>
<g mask="url(#mask45_2746_21778)">
<g opacity="0.199997">
<path d="M378.012 415.415C378.012 426.881 370.439 436.177 361.097 436.177C351.755 436.177 344.182 426.881 344.182 415.415C344.182 403.948 351.755 394.653 361.097 394.653C370.439 394.653 378.012 403.948 378.012 415.415Z" fill="black"/>
</g>
</g>
<path d="M387.547 415.418C387.547 426.884 379.474 436.172 369.52 436.172H360.387V394.654H369.52C379.474 394.654 387.547 403.952 387.547 415.418Z" fill="#1A2E35"/>
<mask id="mask46_2746_21778" style="mask-type:luminance" maskUnits="userSpaceOnUse" x="360" y="394" width="28" height="43">
<path d="M360.385 394.653H387.546V436.171H360.385V394.653Z" fill="white"/>
</mask>
<g mask="url(#mask46_2746_21778)">
<g opacity="0.199997">
<path d="M387.545 415.417C387.545 426.883 379.472 436.171 369.518 436.171H360.385V394.653H369.518C379.472 394.653 387.545 403.951 387.545 415.417Z" fill="black"/>
</g>
</g>
<path d="M362.121 395.859C372.694 395.278 378.017 406.216 378.295 415.414C378.597 422.395 375.397 430.082 368.967 433.465C366.859 434.576 364.457 435.14 362.121 434.969V434.865C366.793 434.541 370.851 431.806 373.449 428.151C378.73 420.883 379.516 409.752 373.546 402.605C372.154 400.819 370.506 399.234 368.569 398.066C366.645 396.884 364.435 396.159 362.121 395.963V395.859Z" fill="#2B454E"/>
<path d="M360.826 423.477C356.089 423.477 352.18 419.772 351.925 415.043L350.23 390.145H371.422L369.727 415.043C369.472 419.772 365.563 423.477 360.826 423.477Z" fill="#A8A8A8"/>
<mask id="mask47_2746_21778" style="mask-type:luminance" maskUnits="userSpaceOnUse" x="350" y="390" width="22" height="34">
<path d="M350.232 390.144H371.425V423.476H350.232V390.144Z" fill="white"/>
</mask>
<g mask="url(#mask47_2746_21778)">
<g opacity="0.100006">
<path d="M360.828 423.476C356.091 423.476 352.182 419.771 351.927 415.042L350.232 390.144H371.424L369.729 415.042C369.474 419.771 365.565 423.476 360.828 423.476Z" fill="black"/>
</g>
</g>
<path d="M357.761 417.707C354.275 415.243 356.667 409.544 360.827 409.899C362.07 409.965 363.247 410.609 363.894 411.573C359.669 408.658 354.842 413.486 357.761 417.707Z" fill="#DCDCDC"/>
<mask id="mask48_2746_21778" style="mask-type:luminance" maskUnits="userSpaceOnUse" x="357" y="411" width="9" height="9">
<path d="M357.758 411.572H365.57V419.396H357.758V411.572Z" fill="white"/>
</mask>
<g mask="url(#mask48_2746_21778)">
<g opacity="0.100006">
<path d="M363.891 411.573C367.377 414.037 364.985 419.735 360.825 419.381C359.582 419.314 358.405 418.67 357.758 417.706C361.983 420.621 366.81 415.794 363.891 411.573Z" fill="black"/>
</g>
</g>
<mask id="mask49_2746_21778" style="mask-type:luminance" maskUnits="userSpaceOnUse" x="358" y="411" width="5" height="6">
<path d="M358.49 411.941H362.925V416.981H358.49V411.941Z" fill="white"/>
</mask>
<g mask="url(#mask49_2746_21778)">
<g opacity="0.100006">
<path d="M362.816 414.525C362.634 412.577 359.422 412.512 359.069 414.525C358.973 414.983 359.119 415.528 359.502 415.849C359.883 416.184 360.418 416.204 360.827 416.134C361.662 415.988 362.818 415.59 362.816 414.525ZM362.919 414.525C362.954 418.069 359.052 417.52 358.501 414.525C358.228 411.247 363.111 410.916 362.919 414.525Z" fill="black"/>
</g>
</g>
<path d="M242.641 415.415C242.641 426.881 235.068 436.177 225.726 436.177C216.384 436.177 208.811 426.881 208.811 415.415C208.811 403.948 216.384 394.653 225.726 394.653C235.068 394.653 242.641 403.948 242.641 415.415Z" fill="#1A2E35"/>
<mask id="mask50_2746_21778" style="mask-type:luminance" maskUnits="userSpaceOnUse" x="208" y="394" width="35" height="43">
<path d="M208.811 394.653H242.641V436.177H208.811V394.653Z" fill="white"/>
</mask>
<g mask="url(#mask50_2746_21778)">
<g opacity="0.199997">
<path d="M242.641 415.415C242.641 426.881 235.068 436.177 225.726 436.177C216.384 436.177 208.811 426.881 208.811 415.415C208.811 403.948 216.384 394.653 225.726 394.653C235.068 394.653 242.641 403.948 242.641 415.415Z" fill="black"/>
</g>
</g>
<path d="M252.181 415.418C252.181 426.884 244.107 436.172 234.154 436.172H225.02V394.654H234.154C244.107 394.654 252.181 403.952 252.181 415.418Z" fill="#1A2E35"/>
<mask id="mask51_2746_21778" style="mask-type:luminance" maskUnits="userSpaceOnUse" x="225" y="394" width="28" height="43">
<path d="M225.021 394.653H252.183V436.171H225.021V394.653Z" fill="white"/>
</mask>
<g mask="url(#mask51_2746_21778)">
<g opacity="0.199997">
<path d="M252.183 415.417C252.183 426.883 244.109 436.171 234.156 436.171H225.021V394.653H234.156C244.109 394.653 252.183 403.951 252.183 415.417Z" fill="black"/>
</g>
</g>
<path d="M226.752 395.859C237.324 395.278 242.648 406.216 242.926 415.414C243.228 422.395 240.029 430.082 233.598 433.465C231.49 434.576 229.088 435.14 226.752 434.969V434.865C231.424 434.541 235.482 431.806 238.08 428.151C243.361 420.883 244.147 409.752 238.177 402.605C236.785 400.819 235.136 399.234 233.199 398.066C231.274 396.884 229.066 396.159 226.752 395.963V395.859Z" fill="#2B454E"/>
<path d="M225.457 423.477C220.72 423.477 216.811 419.772 216.556 415.043L214.861 390.145H236.053L234.358 415.043C234.103 419.772 230.194 423.477 225.457 423.477Z" fill="#A8A8A8"/>
<mask id="mask52_2746_21778" style="mask-type:luminance" maskUnits="userSpaceOnUse" x="214" y="390" width="23" height="34">
<path d="M214.861 390.145H236.053V423.477H214.861V390.145Z" fill="white"/>
</mask>
<g mask="url(#mask52_2746_21778)">
<g opacity="0.100006">
<path d="M225.457 423.477C220.72 423.477 216.811 419.772 216.556 415.043L214.861 390.145H236.053L234.358 415.043C234.103 419.772 230.194 423.477 225.457 423.477Z" fill="black"/>
</g>
</g>
<path d="M222.39 417.707C218.904 415.243 221.296 409.544 225.456 409.899C226.699 409.965 227.876 410.609 228.523 411.573C224.298 408.658 219.471 413.486 222.39 417.707Z" fill="#DCDCDC"/>
<mask id="mask53_2746_21778" style="mask-type:luminance" maskUnits="userSpaceOnUse" x="222" y="411" width="9" height="9">
<path d="M222.395 411.572H230.206V419.396H222.395V411.572Z" fill="white"/>
</mask>
<g mask="url(#mask53_2746_21778)">
<g opacity="0.100006">
<path d="M228.528 411.573C232.014 414.037 229.622 419.735 225.462 419.381C224.219 419.314 223.042 418.67 222.395 417.706C226.62 420.621 231.446 415.794 228.528 411.573Z" fill="black"/>
</g>
</g>
<mask id="mask54_2746_21778" style="mask-type:luminance" maskUnits="userSpaceOnUse" x="223" y="411" width="5" height="6">
<path d="M223.121 411.941H227.556V416.981H223.121V411.941Z" fill="white"/>
</mask>
<g mask="url(#mask54_2746_21778)">
<g opacity="0.100006">
<path d="M227.447 414.525C227.265 412.577 224.053 412.512 223.7 414.525C223.604 414.983 223.75 415.528 224.133 415.849C224.515 416.184 225.049 416.204 225.458 416.134C226.293 415.988 227.449 415.59 227.447 414.525ZM227.55 414.525C227.584 418.069 223.683 417.52 223.132 414.525C222.86 411.247 227.742 410.916 227.55 414.525Z" fill="black"/>
</g>
</g>
<path d="M407.632 286.661L342.925 286.657L115.955 272.826L116.208 268.683L343.115 282.51H407.632V286.661Z" fill="#C8C8C8"/>
<path d="M385.438 283.884C391.715 283.173 398.005 283.167 404.283 283.884C398.005 284.6 391.715 284.594 385.438 283.884Z" fill="white"/>
<path d="M122.875 270.004C187.998 273.519 266.997 278.471 332.205 282.842C334.773 282.986 341.728 283.549 344.281 283.609C346.496 283.608 377.68 283.862 380.571 283.883C377.708 283.906 346.216 284.161 344.263 284.157C341.708 284.119 334.87 283.625 332.183 283.498C266.898 279.661 187.974 274.68 122.875 270.004Z" fill="white"/>
<path d="M424.299 227.193H349.435C349.379 227.193 349.323 227.191 349.269 227.187L119.824 208.865C118.682 208.774 117.83 207.774 117.921 206.631C118.012 205.488 119.004 204.633 120.156 204.727L349.517 223.042H424.299C425.445 223.042 426.374 223.972 426.374 225.118C426.374 226.265 425.445 227.193 424.299 227.193Z" fill="#C8C8C8"/>
<mask id="mask55_2746_21778" style="mask-type:luminance" maskUnits="userSpaceOnUse" x="117" y="205" width="310" height="23">
<path d="M117.914 205.921H426.373V227.193H117.914V205.921Z" fill="white"/>
</mask>
<g mask="url(#mask55_2746_21778)">
<g opacity="0.100006">
<path d="M426.374 225.118C426.374 226.26 425.45 227.193 424.299 227.193H349.44C349.377 227.193 349.326 227.193 349.274 227.184L119.83 208.868C118.689 208.775 117.827 207.779 117.921 206.627C117.941 206.377 118.004 206.139 118.108 205.921C118.441 206.46 119.031 206.844 119.716 206.907L349.16 225.232H424.185C425.025 225.232 425.741 224.745 426.063 224.029C426.26 224.35 426.374 224.724 426.374 225.118Z" fill="black"/>
</g>
</g>
<path d="M289.83 219.018C297.742 218.95 305.606 219.585 313.403 220.937C305.49 221.013 297.627 220.366 289.83 219.018Z" fill="white"/>
<path d="M121.629 205.323C173.856 208.898 232.39 213.658 284.506 218.584C232.279 215.015 173.745 210.244 121.629 205.323Z" fill="white"/>
<path d="M353.508 267.719H407.967L417.37 222.66H361.304L353.508 267.719Z" fill="#375A64"/>
<mask id="mask56_2746_21778" style="mask-type:luminance" maskUnits="userSpaceOnUse" x="353" y="222" width="12" height="46">
<path d="M353.508 222.667H364.071V267.723H353.508V222.667Z" fill="white"/>
</mask>
<g mask="url(#mask56_2746_21778)">
<g opacity="0.100006">
<path d="M364.071 222.665L356.268 267.721H353.508L361.311 222.665H364.071Z" fill="black"/>
</g>
</g>
<mask id="mask57_2746_21778" style="mask-type:luminance" maskUnits="userSpaceOnUse" x="356" y="222" width="60" height="46">
<path d="M356.266 222.661H415.446V267.717H356.266V222.661Z" fill="white"/>
</mask>
<g mask="url(#mask57_2746_21778)">
<g opacity="0.0500031">
<path d="M414.864 222.661L369.807 267.718H356.266L356.773 264.77L398.883 222.661H414.864Z" fill="black"/>
<path d="M381.304 222.661L360.457 243.508L361.92 235.082L374.352 222.661H381.304Z" fill="black"/>
<path d="M410.557 255.275L408.72 264.065V264.074L405.078 267.717H398.115L410.557 255.275Z" fill="black"/>
<path d="M415.445 231.855L414.947 234.262L381.491 267.718H379.582L415.445 231.855Z" fill="black"/>
<path d="M385.912 222.661L359.492 249.08L359.897 246.766L384.002 222.661H385.912Z" fill="black"/>
</g>
</g>
<path d="M193.151 127.218C193.151 131.255 190.754 134.523 187.786 134.523H183.303V119.902H187.786C190.754 119.902 193.151 123.181 193.151 127.218Z" fill="#375A64"/>
<mask id="mask58_2746_21778" style="mask-type:luminance" maskUnits="userSpaceOnUse" x="183" y="119" width="11" height="16">
<path d="M183.303 119.902H193.15V134.523H183.303V119.902Z" fill="white"/>
</mask>
<g mask="url(#mask58_2746_21778)">
<g opacity="0.199997">
<path d="M193.151 127.218C193.151 131.255 190.754 134.523 187.786 134.523H183.303V119.902H187.786C190.754 119.902 193.151 123.181 193.151 127.218Z" fill="white"/>
</g>
</g>
<path d="M188.67 127.214C188.67 131.252 186.267 134.525 183.302 134.525C180.338 134.525 177.936 131.252 177.936 127.214C177.936 123.176 180.338 119.903 183.302 119.903C186.267 119.903 188.67 123.176 188.67 127.214Z" fill="#375A64"/>
<mask id="mask59_2746_21778" style="mask-type:luminance" maskUnits="userSpaceOnUse" x="177" y="119" width="12" height="16">
<path d="M177.938 119.902H188.672V134.524H177.938V119.902Z" fill="white"/>
</mask>
<g mask="url(#mask59_2746_21778)">
<g opacity="0.100006">
<path d="M188.672 127.213C188.672 131.251 186.269 134.524 183.304 134.524C180.34 134.524 177.938 131.251 177.938 127.213C177.938 123.175 180.34 119.902 183.304 119.902C186.269 119.902 188.672 123.175 188.672 127.213Z" fill="black"/>
</g>
</g>
<path d="M181.233 131.356H84.9773C82.6897 131.356 80.8359 129.503 80.8359 127.215C80.8359 124.929 82.6897 123.075 84.9773 123.075H181.233C183.519 123.075 185.374 124.929 185.374 127.215C185.374 129.503 183.519 131.356 181.233 131.356Z" fill="#375A64"/>
<mask id="mask60_2746_21778" style="mask-type:luminance" maskUnits="userSpaceOnUse" x="80" y="123" width="106" height="9">
<path d="M80.8359 123.101H185.372V131.351H80.8359V123.101Z" fill="white"/>
</mask>
<g mask="url(#mask60_2746_21778)">
<g opacity="0.100006">
<path d="M185.373 127.21C185.373 128.362 184.917 129.39 184.159 130.136C183.412 130.893 182.385 131.351 181.233 131.351H84.9763C82.6937 131.351 80.8359 129.504 80.8359 127.21C80.8359 126.131 81.2511 125.156 81.9256 124.419C81.8944 124.595 81.8847 124.782 81.8847 124.968C81.8847 127.252 83.7317 129.109 86.0251 129.109H178.057C179.209 129.109 180.236 128.642 180.984 127.895C181.741 127.148 182.198 126.11 182.198 124.968C182.198 124.294 182.042 123.661 181.751 123.101C183.796 123.36 185.373 125.104 185.373 127.21Z" fill="black"/>
</g>
</g>
<path d="M88.9805 124.921C116.481 124.223 145.536 124.239 173.07 124.921C145.527 125.603 116.49 125.619 88.9805 124.921Z" fill="white"/>
<path d="M100.268 141.704L78.881 154.031H72.9043L70.6626 136.163C67.7776 131.15 68.8049 124.955 72.7903 121.116V117.661H78.7572C78.9229 117.65 79.0993 117.65 79.265 117.65C83.5409 117.65 87.691 119.871 89.9747 123.835L100.268 141.704Z" fill="#375A64"/>
<mask id="mask61_2746_21778" style="mask-type:luminance" maskUnits="userSpaceOnUse" x="69" y="117" width="32" height="38">
<path d="M69.0137 117.649H100.266V154.03H69.0137V117.649Z" fill="white"/>
</mask>
<g mask="url(#mask61_2746_21778)">
<g opacity="0.100006">
<path d="M100.266 141.703L78.8791 154.03H72.9024L70.6607 136.162C67.7756 131.149 68.8029 124.954 72.7884 121.115V117.66H78.7553C78.921 117.649 79.0974 117.649 79.2631 117.649C83.5389 117.649 87.6891 119.87 89.9727 123.834L100.266 141.703Z" fill="black"/>
</g>
</g>
<path d="M94.2943 141.702L72.9062 154.027L62.6098 136.16C59.2062 130.254 61.2345 122.707 67.141 119.304C73.0465 115.899 80.5934 117.929 83.9979 123.834L94.2943 141.702Z" fill="#375A64"/>
<mask id="mask62_2746_21778" style="mask-type:luminance" maskUnits="userSpaceOnUse" x="69" y="126" width="5" height="5">
<path d="M69.4512 126.411H73.8221V130.781H69.4512V126.411Z" fill="white"/>
</mask>
<g mask="url(#mask62_2746_21778)">
<g opacity="0.100006">
<path d="M73.8216 128.596C73.8216 129.804 72.843 130.781 71.6364 130.781C70.4288 130.781 69.4512 129.804 69.4512 128.596C69.4512 127.389 70.4288 126.411 71.6364 126.411C72.843 126.411 73.8216 127.389 73.8216 128.596Z" fill="black"/>
</g>
</g>
<path d="M72.0137 118.479C77.4085 116.858 82.4212 121.279 84.6834 125.822C86.4992 129.071 88.4047 132.733 90.0811 136.081C90.6318 137.25 91.2127 138.401 91.7361 139.586C91.008 138.517 90.3384 137.414 89.6366 136.329L87.6308 133.017C83.8627 127.049 80.7106 117.494 72.0137 118.479Z" fill="white"/>
</g>
<path d="M416.878 436.496H276.102V372.995H416.878V436.496Z" fill="#FFC800"/>
<mask id="mask63_2746_21778" style="mask-type:luminance" maskUnits="userSpaceOnUse" x="0" y="0" width="488" height="488">
<path d="M0 0H487.334V487.334H0V0Z" fill="white"/>
</mask>
<g mask="url(#mask63_2746_21778)">
<mask id="mask64_2746_21778" style="mask-type:luminance" maskUnits="userSpaceOnUse" x="276" y="372" width="141" height="65">
<path d="M276.1 372.999H416.876V436.499H276.1V372.999Z" fill="white"/>
</mask>
<g mask="url(#mask64_2746_21778)">
<g opacity="0.100006">
<path d="M416.876 436.499H276.1V372.998H416.876V436.499Z" fill="black"/>
</g>
</g>
<mask id="mask65_2746_21778" style="mask-type:luminance" maskUnits="userSpaceOnUse" x="342" y="372" width="75" height="65">
<path d="M342.764 372.997H416.682V436.501H342.764V372.997Z" fill="white"/>
</mask>
<g mask="url(#mask65_2746_21778)">
<g opacity="0.199997">
<path d="M416.682 436.501H342.764V372.997H416.682V436.501Z" fill="black"/>
</g>
</g>
<path d="M279.385 432.125C284.53 427.609 289.632 423.081 294.681 418.535L309.753 404.876L324.634 391.159C329.57 386.579 334.453 381.981 339.289 377.371C334.143 381.887 329.04 386.415 323.991 390.961L308.92 404.62L294.041 418.338C289.105 422.918 284.224 427.516 279.385 432.125Z" fill="#FFC800"/>
<path d="M279.385 377.371C284.224 381.981 289.105 386.578 294.041 391.158L308.92 404.876L323.991 418.535C329.04 423.081 334.143 427.609 339.289 432.125C334.453 427.515 329.57 422.917 324.634 418.337L309.753 404.619L294.681 390.961C289.632 386.415 284.53 381.887 279.385 377.371Z" fill="#FFC800"/>
<path d="M403.872 432.354H403.428V426.077H403.872V432.354Z" fill="#1A2E35"/>
<path d="M404.942 432.354H404.496V426.077H404.942V432.354Z" fill="#1A2E35"/>
<path d="M406.01 432.354H405.564V426.077H406.01V432.354Z" fill="#1A2E35"/>
<path d="M407.078 432.354H406.633V426.077H407.078V432.354Z" fill="#1A2E35"/>
<path d="M408.144 432.354H407.699V426.077H408.144V432.354Z" fill="#1A2E35"/>
<path d="M409.213 432.354H408.768V426.077H409.213V432.354Z" fill="#1A2E35"/>
<path d="M410.281 432.354H409.836V426.077H410.281V432.354Z" fill="#1A2E35"/>
<path d="M411.351 432.354H410.906V426.077H411.351V432.354Z" fill="#1A2E35"/>
<path d="M412.418 432.354H411.973V426.077H412.418V432.354Z" fill="#1A2E35"/>
<path d="M399.061 431.874L400.774 432.351H396.754L398.466 431.868V429.561C397.241 429.401 396.754 428.191 396.754 426.077H400.774C400.774 428.186 400.287 429.401 399.061 429.561V431.874Z" fill="#1A2E35"/>
<path d="M395.817 429.279H394.767V432.353H392.08V429.279H391.025L393.424 426.079L395.817 429.279Z" fill="#1A2E35"/>
<mask id="mask66_2746_21778" style="mask-type:luminance" maskUnits="userSpaceOnUse" x="342" y="428" width="75" height="9">
<path d="M342.764 428.545H416.875V436.501H342.764V428.545Z" fill="white"/>
</mask>
<g mask="url(#mask66_2746_21778)">
<g opacity="0.100006">
<path d="M416.875 436.501V434.08L342.764 428.545V436.497L416.875 436.501Z" fill="black"/>
</g>
</g>
<path d="M355.379 356.521H429.49L416.876 372.997H342.766L355.379 356.521Z" fill="#FFC800"/>
<mask id="mask67_2746_21778" style="mask-type:luminance" maskUnits="userSpaceOnUse" x="342" y="356" width="88" height="17">
<path d="M342.764 356.523H429.488V372.999H342.764V356.523Z" fill="white"/>
</mask>
<g mask="url(#mask67_2746_21778)">
<g opacity="0.399994">
<path d="M355.377 356.523H429.488L416.875 372.999H342.764L355.377 356.523Z" fill="black"/>
</g>
</g>
<path d="M330.154 356.521H263.506L276.119 372.997H342.767L330.154 356.521Z" fill="#FFC800"/>
<mask id="mask68_2746_21778" style="mask-type:luminance" maskUnits="userSpaceOnUse" x="263" y="356" width="80" height="17">
<path d="M263.506 356.523H342.767V372.999H263.506V356.523Z" fill="white"/>
</mask>
<g mask="url(#mask68_2746_21778)">
<g opacity="0.100006">
<path d="M330.154 356.523H263.506L276.119 372.999H342.767L330.154 356.523Z" fill="black"/>
</g>
</g>
<mask id="mask69_2746_21778" style="mask-type:luminance" maskUnits="userSpaceOnUse" x="263" y="356" width="80" height="17">
<path d="M263.506 356.523H342.767V372.999H263.506V356.523Z" fill="white"/>
</mask>
<g mask="url(#mask69_2746_21778)">
<g opacity="0.100006">
<path d="M330.154 356.523H263.506L276.119 372.999H342.767L330.154 356.523Z" fill="black"/>
</g>
</g>
</g>
</svg>
