<svg width="908" height="549" viewBox="0 0 908 549" fill="none" xmlns="http://www.w3.org/2000/svg">
<path d="M428.265 145.298L443.52 150.583L455.725 140.015L452.676 124.162L437.421 118.875L425.216 129.444L428.265 145.298ZM443.722 161.379C442.661 161.379 441.592 161.204 440.562 160.847L424.237 155.191C420.978 154.06 418.549 151.255 417.897 147.868L414.634 130.902C413.982 127.515 415.197 124.008 417.805 121.751L430.868 110.44C433.474 108.182 437.117 107.482 440.378 108.611L456.702 114.268C459.962 115.398 462.392 118.203 463.044 121.591L466.306 138.556C466.957 141.943 465.744 145.448 463.137 147.707L450.073 159.018C448.29 160.562 446.021 161.379 443.722 161.379Z" fill="#F3F2F1"/>
<path d="M626.785 98.8207L633.977 101.313L639.732 96.3301L638.293 88.8541L631.101 86.3621L625.345 91.3448L626.785 98.8207ZM634.179 112.107C633.119 112.107 632.051 111.933 631.02 111.575L622.756 108.714C619.496 107.583 617.067 104.777 616.416 101.389L614.765 92.8034C614.113 89.4181 615.327 85.9114 617.935 83.6527L624.549 77.9261C627.157 75.6674 630.8 74.9674 634.06 76.0967L642.321 78.9607C645.581 80.0901 648.011 82.8967 648.663 86.2847L650.313 94.8701C650.963 98.2581 649.749 101.763 647.145 104.021L640.531 109.747C638.747 111.291 636.477 112.107 634.179 112.107Z" fill="#F3F2F1"/>
<path d="M867.898 215.177L867.646 215.195L860.288 216.325C859.694 216.414 859.192 216.818 858.974 217.377L856.272 224.313C856.054 224.871 856.152 225.51 856.528 225.978L861.182 231.786C861.558 232.254 862.173 232.49 862.752 232.398L870.112 231.27C870.704 231.179 871.206 230.775 871.424 230.217L874.126 223.279C874.344 222.721 874.246 222.082 873.87 221.615V221.614L869.216 215.807C868.894 215.406 868.405 215.177 867.898 215.177ZM862.505 237.75C860.396 237.75 858.362 236.794 857.021 235.123L852.366 229.315C850.804 227.366 850.396 224.707 851.301 222.378L854.005 215.442C854.909 213.114 857.009 211.431 859.478 211.053L866.838 209.923C869.3 209.543 871.812 210.522 873.377 212.47L878.032 218.278C879.596 220.229 880.004 222.886 879.097 225.215L876.394 232.151C875.488 234.479 873.39 236.163 870.92 236.542L863.561 237.67C863.209 237.723 862.856 237.75 862.505 237.75Z" fill="#F3F4F6"/>
<path d="M21.271 272.979L31.9846 286.343L48.9137 283.749L55.1298 267.787L44.4164 254.425L27.4877 257.021L21.271 272.979ZM31.8617 295.699C29.1508 295.699 26.5377 294.471 24.8153 292.321L13.8752 278.677C11.8669 276.17 11.3424 272.754 12.5085 269.762L18.857 253.463C20.0232 250.471 22.7189 248.31 25.8924 247.823L43.1809 245.171C46.3606 244.685 49.5762 245.939 51.5856 248.445L62.5246 262.091C64.5341 264.597 65.058 268.011 63.8934 271.005L57.5445 287.305C56.3789 290.298 53.6825 292.459 50.5076 292.946L33.2189 295.597C32.7664 295.666 32.3128 295.699 31.8617 295.699Z" fill="#F3F4F6"/>
<path d="M65.7939 149.626C65.1933 149.626 64.6345 149.949 64.334 150.469L59.1792 159.398C58.8792 159.917 58.8792 160.563 59.1792 161.083L64.334 170.012C64.6345 170.532 65.1933 170.854 65.7939 170.854H76.1037C76.7037 170.854 77.2631 170.532 77.5636 170.012L82.7188 161.083C83.0188 160.563 83.0188 159.917 82.7188 159.398L77.5636 150.469C77.2636 149.949 76.7037 149.626 76.1037 149.626H65.7939ZM76.1037 176.188H65.7939C63.2944 176.188 60.9647 174.844 59.7157 172.678L54.5605 163.75C53.3105 161.585 53.3105 158.896 54.5605 156.732L59.7157 147.802C60.9647 145.638 63.2944 144.293 65.7939 144.293H76.1037C78.6021 144.293 80.9319 145.638 82.1819 147.802L87.3376 156.732C88.5876 158.896 88.5876 161.585 87.3376 163.75L82.1819 172.68C80.9319 174.844 78.6021 176.188 76.1037 176.188Z" fill="#E5E7EB"/>
<path d="M251.968 75.3266L231.866 62.6759L207.182 21.0226L172.848 -0.00010255L166.203 7.19593L169.695 11.8839L180.526 26.4199L223.559 84.1799L241.107 93.8359L251.968 75.3266Z" fill="#E5E7EB"/>
<path d="M226.706 105.275L220.949 86.0911L157.716 13.8565L149.285 18.8445L162.634 56.8245L199.341 92.8792L207.568 115.396L226.706 105.275Z" fill="#E5E7EB"/>
<path d="M260.952 78.9003C260.952 78.9003 332.358 118.087 346.742 131.316C361.127 144.546 394.735 199.622 391.323 206.656C387.91 213.69 385.299 214.596 377.551 207.83C369.804 201.063 344.775 163.267 338.044 157.16C331.314 151.055 247.678 101.987 247.678 101.987L260.952 78.9003Z" fill="#F3F4F6"/>
<path d="M206.858 94.9568C194.772 91.8155 187.521 79.4702 190.662 67.3835C193.804 55.2955 206.149 48.0448 218.236 51.1862C230.324 54.3275 237.574 66.6728 234.433 78.7595C231.292 90.8475 218.946 98.0982 206.858 94.9568Z" fill="#E5E7EB"/>
<path d="M206.858 94.9566C206.878 94.8393 208.802 95.498 212.381 95.526C214.166 95.5686 216.358 95.286 218.785 94.582C221.205 93.866 223.86 92.622 226.35 90.642C228.821 88.6647 231.182 85.978 232.734 82.5767C234.258 79.1927 235.182 75.1673 234.722 70.9886C234.553 68.9033 234.028 66.7953 233.198 64.77C232.824 63.738 232.269 62.7766 231.753 61.7846C231.138 60.8513 230.55 59.886 229.801 59.0246C226.962 55.4553 222.814 52.7806 218.152 51.5233C213.466 50.35 208.54 50.6646 204.321 52.3993C203.246 52.7873 202.262 53.3446 201.27 53.8606C200.337 54.474 199.384 55.0446 198.554 55.7646C196.844 57.13 195.357 58.714 194.194 60.4553C191.757 63.8806 190.605 67.846 190.288 71.5447C189.986 75.2713 190.741 78.7686 191.937 81.698C193.148 84.6406 194.861 87.0193 196.626 88.8233C198.402 90.6193 200.18 91.934 201.758 92.7646C204.898 94.4833 206.9 94.8446 206.858 94.9566C206.856 94.9686 206.734 94.9433 206.5 94.8807C206.228 94.8047 205.885 94.71 205.461 94.5913C205.001 94.47 204.44 94.2967 203.805 94.0113C203.161 93.7473 202.41 93.462 201.629 93.0033C200.012 92.1967 198.184 90.8966 196.35 89.0953C194.528 87.2873 192.752 84.882 191.484 81.8886C190.232 78.9073 189.43 75.3313 189.713 71.5047C190.012 67.7087 191.174 63.63 193.666 60.0926C194.857 58.2966 196.38 56.6593 198.137 55.2486C198.99 54.5046 199.969 53.914 200.93 53.2807C201.95 52.746 202.964 52.17 204.069 51.7673C208.412 49.9713 213.497 49.6393 218.326 50.8513C223.133 52.146 227.41 54.9126 230.329 58.5953C231.098 59.4846 231.702 60.4807 232.333 61.4447C232.864 62.466 233.43 63.458 233.813 64.522C234.661 66.61 235.193 68.782 235.358 70.9286C235.813 75.2313 234.842 79.3606 233.256 82.8206C231.64 86.3006 229.198 89.034 226.653 91.0286C224.089 93.026 221.366 94.262 218.893 94.9553C216.414 95.6353 214.185 95.8806 212.38 95.7966C211.474 95.8166 210.678 95.702 209.988 95.618C209.294 95.558 208.72 95.4366 208.258 95.318C207.83 95.214 207.485 95.1313 207.21 95.066C206.974 95.0046 206.856 94.9686 206.858 94.9566Z" fill="#F3F4F6"/>
<path d="M209.336 85.4297C202.51 83.6564 198.416 76.6857 200.19 69.8604C201.964 63.0351 208.934 58.9418 215.76 60.7151C222.585 62.4898 226.68 69.4604 224.905 76.2844C223.132 83.1097 216.161 87.2044 209.336 85.4297Z" fill="#F3F4F6"/>
<path d="M209.336 85.4298C209.352 85.3445 210.443 85.6951 212.455 85.6925C214.428 85.6871 217.463 85.1472 220.276 82.9098C221.655 81.7965 222.971 80.2898 223.833 78.3858C224.68 76.4925 225.191 74.2418 224.929 71.9098C224.835 70.7445 224.539 69.5698 224.075 68.4392C223.627 67.3018 222.989 66.2098 222.175 65.2351C220.589 63.2445 218.276 61.7538 215.675 61.0511C213.06 60.3978 210.313 60.5712 207.957 61.5378C206.771 61.9938 205.681 62.6365 204.737 63.4125C203.781 64.1738 202.951 65.0565 202.3 66.0271C200.935 67.9378 200.287 70.1525 200.104 72.2191C199.929 74.3018 200.345 76.2591 201.008 77.9018C202.376 81.2258 204.764 83.1752 206.484 84.1418C208.24 85.1232 209.364 85.3471 209.336 85.4298C209.336 85.4298 208.189 85.3058 206.355 84.3778C204.559 83.4645 202.039 81.5218 200.556 78.0925C199.837 76.3978 199.373 74.3605 199.529 72.1792C199.695 70.0152 200.353 67.6871 201.772 65.6658C202.451 64.6391 203.319 63.7045 204.32 62.8965C205.312 62.0751 206.456 61.3912 207.705 60.9058C210.185 59.8792 213.091 59.6872 215.849 60.3805C218.595 61.1178 221.039 62.7018 222.703 64.8058C223.557 65.8378 224.224 66.9911 224.689 68.1911C225.172 69.3845 225.475 70.6245 225.567 71.8498C225.821 74.3058 225.264 76.6605 224.355 78.6311C223.428 80.6125 222.032 82.1658 220.579 83.2965C217.615 85.5698 214.467 86.0391 212.452 85.9631C210.397 85.8805 209.336 85.4298 209.336 85.4298Z" fill="#F3F4F6"/>
<path d="M237.788 90.6524L247.024 74.5778C249.732 69.8644 255.75 68.2391 260.463 70.9471L261.328 71.4444C266.042 74.1524 267.667 80.1697 264.959 84.8831L255.722 100.958C253.014 105.671 246.996 107.296 242.283 104.588L241.418 104.091C236.704 101.383 235.079 95.3657 237.788 90.6524Z" fill="#E5E7EB"/>
<path d="M237.788 90.6536C237.887 90.6896 236.991 91.887 236.681 94.4083C236.551 95.6576 236.66 97.2296 237.273 98.903C237.604 99.7283 238.049 100.572 238.655 101.378C239.279 102.166 240.055 102.906 240.983 103.52C241.927 104.111 242.964 104.746 244.104 105.118C245.252 105.502 246.523 105.68 247.824 105.588C250.42 105.418 253.131 104.059 254.861 101.69C257.924 96.5749 261.171 90.7243 264.656 84.7136C266.343 81.787 266.303 78.083 264.701 75.3323C263.943 73.9363 262.817 72.7923 261.532 71.971C260.211 71.1296 258.881 70.4083 257.432 70.1509C254.559 69.5656 251.629 70.3776 249.608 72.015C247.517 73.611 246.589 76.047 245.363 77.9643C243.076 81.851 241.212 85.0189 239.88 87.2843C239.247 88.3309 238.741 89.1683 238.359 89.8003C238.004 90.371 237.808 90.6656 237.788 90.6536C237.767 90.6416 237.923 90.3243 238.237 89.7296C238.591 89.0816 239.059 88.223 239.645 87.1483C240.931 84.8576 242.729 81.6523 244.936 77.7203C245.5 76.7256 246.089 75.6843 246.703 74.6016C247.325 73.4976 248.169 72.427 249.248 71.5643C251.379 69.8083 254.485 68.9163 257.557 69.5243C259.104 69.7883 260.553 70.567 261.888 71.4123C263.267 72.283 264.477 73.507 265.295 74.999C267.017 77.9403 267.069 81.9203 265.259 85.0603C261.755 91.0963 258.548 96.851 255.377 102.067C253.516 104.588 250.615 106.008 247.863 106.163C246.483 106.247 245.14 106.044 243.931 105.626C242.701 105.202 241.685 104.556 240.709 103.928C239.743 103.27 238.941 102.48 238.304 101.644C237.683 100.792 237.235 99.903 236.909 99.0376C236.305 97.2843 236.237 95.6563 236.412 94.3776C236.587 93.0883 236.992 92.1563 237.26 91.539C237.584 90.9443 237.768 90.6416 237.788 90.6536Z" fill="#F3F4F6"/>
<path d="M210.223 126.776C210.223 126.776 237.276 203.603 247.989 219.948C258.704 236.292 307.581 278.409 315.077 276.187C322.573 273.963 323.891 271.533 318.475 262.789C313.057 254.045 279.836 223.201 274.905 215.568C269.975 207.935 235.16 117.432 235.16 117.432L210.223 126.776Z" fill="#F3F4F6"/>
<path d="M225.585 105.83L208.223 112.33C203.132 114.235 200.549 119.907 202.456 124.999L202.805 125.934C204.711 131.024 210.384 133.607 215.475 131.7L232.837 125.2C237.929 123.295 240.511 117.623 238.605 112.531L238.256 111.598C236.349 106.506 230.677 103.924 225.585 105.83Z" fill="#E5E7EB"/>
<path d="M225.585 105.83C225.577 105.809 225.905 105.677 226.545 105.454C227.199 105.29 228.183 105.041 229.483 105.08C230.773 105.114 232.369 105.446 234 106.328C234.801 106.789 235.607 107.377 236.345 108.126C237.067 108.892 237.716 109.812 238.208 110.872C238.669 111.937 239.14 113.045 239.359 114.326C239.576 115.588 239.557 116.946 239.249 118.293C238.649 120.984 236.777 123.616 233.987 125.041C228.325 127.322 222.125 129.55 215.599 132.025C212.207 133.302 208.288 132.604 205.667 130.426C204.327 129.377 203.316 127.982 202.681 126.481C202.064 125.028 201.531 123.47 201.523 121.901C201.421 118.77 202.808 115.85 204.887 114.034C205.913 113.11 207.107 112.452 208.297 112.016C209.465 111.588 210.588 111.174 211.661 110.781C215.901 109.244 219.356 107.989 221.825 107.093C222.981 106.69 223.904 106.368 224.601 106.124C225.239 105.91 225.577 105.808 225.585 105.83C225.595 105.853 225.272 105.998 224.651 106.256C223.965 106.529 223.056 106.893 221.92 107.346C219.469 108.293 216.04 109.617 211.833 111.241C209.743 112.14 207.187 112.66 205.273 114.462C203.328 116.192 202.051 118.949 202.161 121.88C202.18 123.352 202.675 124.78 203.291 126.221C203.891 127.622 204.837 128.92 206.091 129.894C208.545 131.921 212.193 132.562 215.355 131.376C221.852 128.913 228.153 126.661 233.697 124.472C236.317 123.15 238.099 120.696 238.689 118.161C238.991 116.893 239.021 115.61 238.831 114.414C238.648 113.229 238.189 112.104 237.761 111.074C237.307 110.06 236.701 109.174 236.025 108.43C235.331 107.702 234.569 107.125 233.808 106.665C232.259 105.788 230.724 105.424 229.471 105.349C226.932 105.245 225.604 105.934 225.585 105.83Z" fill="#F3F4F6"/>
<path d="M907.935 548.017C907.935 548.21 704.685 548.365 454.023 548.365C203.272 548.365 0.0654297 548.21 0.0654297 548.017C0.0654297 547.827 203.272 547.67 454.023 547.67C704.685 547.67 907.935 547.827 907.935 548.017Z" fill="#111827"/>
<path d="M70.9492 395.482C71.318 394.364 112.862 258.555 112.862 258.555L111.823 241.688L122.688 223.798L136.184 228.255L134.337 248.31L124.746 262.892L82.896 399.342L70.9492 395.482Z" fill="#F3F4F6"/>
<path d="M70.9492 395.481C70.9492 395.481 71.2293 395.556 71.7508 395.715C72.2888 395.881 73.0555 396.12 74.0585 396.431C76.0919 397.071 79.068 398.008 82.9336 399.224L82.7789 399.305C89.5383 377.147 105.171 325.897 124.421 262.792L124.435 262.745L124.462 262.705C127.499 258.084 130.751 253.137 134.049 248.12L133.993 248.277C134.583 241.88 135.207 235.095 135.839 228.223L136.075 228.584C135.724 228.468 135.341 228.341 134.96 228.216C130.797 226.841 126.667 225.476 122.579 224.127L122.984 223.977C119.291 230.056 115.66 236.032 112.115 241.865L112.164 241.668C112.516 247.419 112.861 253.047 113.197 258.533L113.2 258.595L113.183 258.652C101.04 298.108 90.5237 332.28 83.0361 356.609C79.2705 368.775 76.268 378.473 74.1997 385.157C73.1617 388.481 72.3601 391.052 71.8101 392.813C71.5372 393.673 71.3284 394.332 71.1804 394.799C71.0361 395.245 70.9492 395.481 70.9492 395.481C70.9492 395.481 71.0003 395.264 71.1274 394.825C71.2627 394.365 71.4544 393.715 71.7049 392.865C72.2309 391.112 72.9981 388.556 73.9904 385.249C76.0123 378.571 78.946 368.876 82.6257 356.719C90.056 332.313 100.492 298.035 112.542 258.456L112.528 258.575C112.188 253.088 111.838 247.46 111.482 241.709L111.475 241.603L111.531 241.511C115.073 235.675 118.701 229.697 122.392 223.617L122.535 223.383L122.797 223.468C126.885 224.819 131.015 226.181 135.177 227.556C135.559 227.683 135.941 227.808 136.292 227.924L136.555 228.011L136.529 228.287C135.896 235.157 135.271 241.944 134.681 248.341L134.673 248.428L134.625 248.5C131.325 253.515 128.069 258.46 125.029 263.079L125.071 262.992C105.629 326.039 89.8399 377.24 83.0132 399.377L82.9763 399.496L82.8585 399.457C78.9825 398.173 75.9981 397.184 73.9591 396.508C72.9747 396.177 72.2232 395.924 71.6951 395.747C71.1908 395.575 70.9492 395.481 70.9492 395.481Z" fill="#111827"/>
<path d="M60.9207 402.082L42.2625 427.313L16.1691 521.962C16.1691 521.962 12.4176 541.267 33.7442 546.753C57.691 552.913 63.2145 534.569 63.2145 534.569L88.5849 442.129L88.2046 410.049L94.4677 402.997C95.7281 401.578 95.1239 399.333 93.3218 398.738L63.3614 388.844C61.5505 388.246 59.7223 389.706 59.9062 391.605L60.9207 402.082Z" fill="#EA580C"/>
<path d="M88.4163 411.165C88.3584 411.348 82.0783 409.518 74.3917 407.078C66.7021 404.638 60.5179 402.513 60.5756 402.33C60.6335 402.148 66.9121 403.977 74.6016 406.417C82.2887 408.856 88.474 410.982 88.4163 411.165Z" fill="#111827"/>
<path d="M88.5848 442.129C88.5733 442.175 87.9081 442.056 86.7149 441.8C85.5212 441.546 83.8024 441.139 81.6868 440.608C77.4545 439.545 71.6414 437.934 65.2966 435.91C58.9504 433.882 53.2794 431.825 49.2144 430.239C47.1816 429.446 45.5461 428.781 44.4258 428.297C43.305 427.814 42.6936 427.526 42.7113 427.482C42.729 427.437 43.3738 427.639 44.5238 428.045C45.7961 428.498 47.429 429.081 49.3857 429.779C53.4894 431.246 59.1742 433.225 65.5076 435.249C71.84 437.269 77.619 438.95 81.8133 440.133C83.8128 440.698 85.481 441.17 86.781 441.537C87.9534 441.874 88.5961 442.082 88.5848 442.129Z" fill="#111827"/>
<path d="M26.8087 524.83C26.3952 524.83 25.9743 524.771 25.5567 524.649L24.9165 524.458C22.5843 523.769 21.2535 521.318 21.9441 518.986L45.3691 439.868C45.9357 437.952 47.69 436.713 49.59 436.713C50.004 436.713 50.4248 436.771 50.842 436.894L51.4827 437.085C53.8144 437.775 55.1456 440.225 54.4551 442.558L31.03 521.675C30.4633 523.59 28.7092 524.83 26.8087 524.83Z" fill="#EA580C"/>
<path d="M40.111 529.209C39.6968 529.209 39.2761 529.15 38.8589 529.026L38.2183 528.837C35.8859 528.146 34.5552 525.695 35.2459 523.363L58.6708 444.246C59.2375 442.33 60.9916 441.09 62.8916 441.09C63.3058 441.09 63.7266 441.149 64.1443 441.273L64.7844 441.462C67.1167 442.153 68.4474 444.603 67.7568 446.936L44.3318 526.054C43.7651 527.969 42.0115 529.209 40.111 529.209Z" fill="#EA580C"/>
<path d="M54.2291 533.389C53.8151 533.389 53.3943 533.33 52.9771 533.206L52.3364 533.017C50.0042 532.326 48.6735 529.877 49.364 527.543L72.7891 448.426C73.3558 446.512 75.1099 445.271 77.0099 445.271C77.4239 445.271 77.8448 445.33 78.262 445.453L78.9026 445.643C81.2348 446.333 82.5656 448.783 81.8749 451.115L58.45 530.234C57.8834 532.149 56.1296 533.389 54.2291 533.389Z" fill="#EA580C"/>
<path d="M124.617 262.854C124.554 263.035 121.895 262.281 118.678 261.167C115.46 260.055 112.903 259.006 112.966 258.825C113.029 258.643 115.687 259.399 118.906 260.511C122.122 261.623 124.68 262.673 124.617 262.854Z" fill="#111827"/>
<path d="M136.184 228.254C136.224 228.266 136.056 228.926 135.715 230.123C135.33 231.419 134.822 233.131 134.2 235.223C132.825 239.647 130.958 245.657 128.833 252.501L128.729 252.834L128.396 252.718C126.414 252.027 124.36 251.313 122.254 250.579C120.081 249.815 117.961 249.073 115.927 248.358L115.626 248.253L115.712 247.947C117.641 241.095 119.332 235.085 120.578 230.661C121.19 228.587 121.691 226.889 122.07 225.603C122.432 224.423 122.648 223.786 122.689 223.797C122.729 223.807 122.589 224.467 122.298 225.666C121.969 226.965 121.533 228.682 121.001 230.778C119.815 235.218 118.204 241.25 116.367 248.127L116.151 247.718C118.187 248.426 120.308 249.166 122.483 249.923C124.587 250.662 126.64 251.382 128.621 252.077L128.185 252.294C130.401 245.481 132.347 239.495 133.78 235.089C134.48 233.023 135.054 231.331 135.488 230.051C135.9 228.877 136.144 228.241 136.184 228.254Z" fill="#111827"/>
<path d="M514 76.5378L529.256 81.8245L541.46 71.2565L538.411 55.4032L523.156 50.1165L510.951 60.6845L514 76.5378ZM529.459 92.6191C528.396 92.6191 527.328 92.4458 526.299 92.0885L509.973 86.4312C506.716 85.3032 504.285 82.4978 503.633 79.1112L500.371 62.1432C499.716 58.7565 500.933 55.2485 503.543 52.9911L516.604 41.6805C519.211 39.4258 522.857 38.7231 526.112 39.8525L542.439 45.5098C545.699 46.6392 548.128 49.4458 548.779 52.8338L552.043 69.7978C552.693 73.1885 551.477 76.6938 548.869 78.9498L535.809 90.2591C534.027 91.8031 531.757 92.6191 529.459 92.6191Z" fill="#F3F4F6"/>
<path d="M514 76.539C513.981 76.5564 513.889 76.1923 513.731 75.4843C513.563 74.7017 513.34 73.6603 513.06 72.3577C512.487 69.5323 511.683 65.5804 510.697 60.735L510.783 60.491C514.251 57.4603 518.388 53.847 522.941 49.871L523.263 49.8084C527.985 51.439 533.144 53.219 538.521 55.075C538.32 54.8417 538.801 55.395 538.752 55.3404L538.753 55.3444L538.755 55.3523L538.757 55.3684L538.764 55.4017L538.776 55.467L538.801 55.5964L538.852 55.8577L538.952 56.3777L539.151 57.415C539.283 58.1044 539.415 58.7897 539.545 59.4697C539.805 60.8324 540.063 62.1777 540.317 63.503C540.821 66.1537 541.311 68.7244 541.781 71.195L541.675 71.5044C537.087 75.443 532.941 79.0017 529.425 82.0203L529.171 82.0684C524.516 80.4004 520.719 79.039 518.005 78.0684C516.755 77.6044 515.757 77.235 515.007 76.9577C514.328 76.699 513.981 76.5564 514 76.539C514.02 76.523 514.404 76.6323 515.116 76.8563C515.887 77.1057 516.911 77.4363 518.195 77.851C520.903 78.7577 524.693 80.0257 529.34 81.5817L529.087 81.6297C532.577 78.5817 536.692 74.987 541.245 71.0097L541.139 71.319C540.659 68.8497 540.16 66.2804 539.645 63.6324C539.389 62.307 539.129 60.9617 538.865 59.6004C538.735 58.9204 538.603 58.235 538.469 57.5457L538.269 56.5097L538.169 55.9897L538.12 55.7284L538.095 55.5977L538.081 55.5324L538.076 55.5004L538.072 55.4843L538.071 55.475V55.471C538.021 55.4124 538.499 55.967 538.295 55.731C532.921 53.863 527.767 52.0684 523.048 50.427L523.369 50.3657C518.783 54.303 514.615 57.8804 511.12 60.8804L511.204 60.6377C512.079 65.4577 512.792 69.391 513.301 72.2017C513.529 73.5297 513.711 74.5923 513.847 75.3897C513.965 76.127 514.02 76.523 514 76.539Z" fill="#111827"/>
<path d="M529.459 92.6203C529.457 92.5843 530.039 92.6084 531.109 92.407C532.167 92.2017 533.756 91.7257 535.373 90.4444C538.539 87.671 543.059 83.7137 548.629 78.835C550.015 77.6577 551.096 76.0017 551.615 74.0924C551.865 73.1377 551.976 72.1257 551.923 71.1017C551.861 70.0884 551.589 69.039 551.396 67.9604C550.559 63.663 549.665 59.075 548.725 54.2484C548.491 53.027 548.299 51.8364 547.757 50.7364C547.245 49.6324 546.505 48.619 545.589 47.7777C544.673 46.935 543.577 46.275 542.383 45.8497C541.141 45.4203 539.888 44.987 538.624 44.5497C536.095 43.675 533.52 42.7844 530.907 41.8804C529.601 41.4284 528.285 40.9724 526.96 40.515C525.631 40.011 524.348 39.6644 522.957 39.671C521.588 39.679 520.227 39.9724 519.001 40.5457C517.751 41.0937 516.755 41.9937 515.704 42.9177C513.612 44.727 511.551 46.5097 509.525 48.2604C507.504 50.011 505.519 51.731 503.573 53.415C501.725 55.0884 500.648 57.4777 500.533 59.851C500.444 61.0457 500.699 62.1937 500.928 63.3843C501.152 64.5617 501.372 65.7244 501.589 66.8684C502.024 69.159 502.445 71.3817 502.853 73.5324C503.271 75.671 503.631 77.783 504.052 79.7284C504.567 81.6377 505.653 83.2964 507.036 84.4684C507.724 85.0577 508.48 85.535 509.265 85.8937C510.045 86.2444 510.884 86.499 511.668 86.7857C513.247 87.343 514.737 87.8684 516.133 88.3617C518.907 89.347 521.303 90.1977 523.279 90.9004C525.247 91.575 526.736 92.2257 527.808 92.4084C528.879 92.6084 529.46 92.5857 529.459 92.6203C529.459 92.6203 528.879 92.7044 527.784 92.5457C526.677 92.4017 525.167 91.7883 523.189 91.155C521.203 90.4843 518.795 89.671 516.005 88.7284C514.604 88.251 513.108 87.7417 511.523 87.203C510.732 86.923 509.913 86.6857 509.073 86.3203C508.245 85.951 507.447 85.4564 506.717 84.8417C505.253 83.6204 504.093 81.883 503.535 79.8684C503.081 77.8484 502.721 75.7937 502.288 73.6404C501.869 71.4924 501.436 69.2723 500.991 66.9843C500.768 65.8403 500.541 64.6804 500.313 63.503C500.085 62.347 499.803 61.0937 499.893 59.819C500.008 57.2817 501.151 54.7257 503.125 52.9257C505.072 51.2337 507.059 49.5057 509.08 47.747C511.104 45.9924 513.163 44.2084 515.252 42.3964C515.783 41.9444 516.277 41.487 516.855 41.035C517.431 40.6004 518.052 40.2243 518.711 39.9163C520.027 39.3003 521.487 38.9844 522.957 38.9777C524.42 38.9577 525.903 39.367 527.188 39.859C528.512 40.319 529.827 40.775 531.133 41.2284C533.745 42.135 536.319 43.0284 538.847 43.907C540.112 44.347 541.365 44.783 542.607 45.215C543.887 45.6737 545.06 46.3857 546.037 47.2897C547.016 48.1923 547.805 49.279 548.348 50.4617C548.924 51.639 549.131 52.939 549.353 54.127C550.272 58.959 551.144 63.551 551.961 67.8523C552.147 68.9257 552.415 69.9724 552.477 71.071C552.528 72.1564 552.404 73.2257 552.132 74.2337C551.572 76.2444 550.411 77.9857 548.951 79.2057C543.315 84.0177 538.743 87.9217 535.541 90.6564C533.851 91.9417 532.212 92.3804 531.133 92.5457C530.039 92.7044 529.459 92.6203 529.459 92.6203Z" fill="#111827"/>
<path d="M421.21 42.2899L420.956 42.3086L413.6 43.438C413.006 43.5273 412.502 43.9326 412.284 44.4913L409.583 51.4259C409.366 51.9859 409.463 52.6246 409.839 53.0926L414.495 58.8993C414.87 59.3686 415.472 59.602 416.064 59.5113L423.422 58.3833C424.015 58.2926 424.519 57.8899 424.736 57.3299L427.439 50.3939C427.656 49.8353 427.556 49.1966 427.182 48.7273L422.527 42.9206C422.206 42.5193 421.716 42.2899 421.21 42.2899ZM415.816 64.8633C413.707 64.8633 411.674 63.9086 410.332 62.2353L405.678 56.4286C404.114 54.4779 403.707 51.8193 404.614 49.4899L407.315 42.5553C408.222 40.2259 410.322 38.5446 412.791 38.1646L420.148 37.0366C422.62 36.6606 425.124 37.6353 426.688 39.5833L431.343 45.3913C432.906 47.3419 433.315 49.9993 432.408 52.3286L429.706 59.266C428.799 61.594 426.702 63.2766 424.23 63.6553L416.874 64.7833C416.522 64.8379 416.167 64.8633 415.816 64.8633Z" fill="#F3F4F6"/>
<path d="M421.209 42.2889C421.206 42.2716 421.409 42.2183 421.782 42.3143C421.966 42.3676 422.192 42.4636 422.412 42.6476C422.636 42.8423 422.812 43.0876 423.045 43.3503C424.017 44.5183 425.293 46.0503 426.833 47.9009C427.034 48.1476 427.24 48.3983 427.449 48.6556C427.672 48.9609 427.804 49.3396 427.818 49.7343C427.846 50.1343 427.68 50.5423 427.56 50.8463C427.433 51.1783 427.305 51.5156 427.176 51.8583C426.649 53.2383 426.089 54.7036 425.502 56.2423C425.354 56.6276 425.204 57.0183 425.053 57.413C424.886 57.8756 424.522 58.2969 424.058 58.5236C423.556 58.7636 423.11 58.7436 422.688 58.8343C422.252 58.9036 421.81 58.9716 421.368 59.041C419.566 59.3116 417.805 59.6183 415.812 59.877C415.237 59.877 414.67 59.6249 414.293 59.1969C413.994 58.8263 413.697 58.4569 413.402 58.0903C412.824 57.3649 412.253 56.6503 411.69 55.9463C411.132 55.2436 410.581 54.553 410.041 53.8756L409.64 53.3703C409.498 53.2036 409.345 52.9636 409.266 52.7316C409.092 52.2596 409.113 51.7196 409.297 51.277C409.905 49.7476 410.484 48.2889 411.029 46.9169C411.302 46.2369 411.565 45.5783 411.82 44.9423C411.956 44.6383 412.037 44.305 412.27 43.9796C412.49 43.673 412.796 43.445 413.129 43.3143C415.693 42.845 417.633 42.6623 419.041 42.4649C420.425 42.2916 421.205 42.2209 421.209 42.2889C421.206 42.3169 421.024 42.3383 420.662 42.4236C420.22 42.5103 419.7 42.6116 419.082 42.7316C417.737 42.9983 415.648 43.2983 413.314 43.7689C413.069 43.8716 412.845 44.0476 412.689 44.277C412.537 44.4876 412.45 44.8169 412.32 45.1369C412.077 45.7769 411.825 46.4409 411.566 47.1263C411.04 48.5049 410.48 49.9716 409.893 51.5103C409.764 51.8316 409.758 52.1836 409.878 52.5076C409.976 52.8076 410.293 53.1076 410.558 53.4609C411.102 54.1343 411.657 54.8223 412.221 55.5209C412.786 56.2223 413.36 56.9343 413.941 57.6583C414.229 58.0143 414.518 58.3743 414.81 58.7356C415.057 59.0169 415.433 59.1823 415.812 59.181C417.678 58.9036 419.501 58.6316 421.264 58.3689C421.709 58.3023 422.149 58.2356 422.585 58.1703C423.022 58.0889 423.484 58.0796 423.765 57.9289C424.08 57.7743 424.32 57.5076 424.445 57.177C424.6 56.7836 424.754 56.3943 424.906 56.0103C425.514 54.4796 426.093 53.0223 426.638 51.6503C426.776 51.3089 426.909 50.9743 427.041 50.6436C427.185 50.2956 427.294 50.0436 427.284 49.7489C427.278 49.4609 427.188 49.1809 427.029 48.9529C426.833 48.6996 426.64 48.4503 426.45 48.2076C424.98 46.301 423.762 44.7223 422.834 43.5196C422.114 42.2476 421.174 42.3503 421.209 42.2889Z" fill="#111827"/>
<path d="M415.816 64.8625C415.816 64.8385 416.126 64.7919 416.707 64.7252C417.359 64.6119 418.203 64.4639 419.252 64.2812C420.387 64.0906 421.735 63.8639 423.287 63.6026C424.08 63.4679 424.908 63.3719 425.714 63.0146C426.523 62.6839 427.31 62.1599 427.987 61.4679C428.664 60.7679 429.21 59.9079 429.564 58.8892C429.956 57.8652 430.364 56.8012 430.786 55.6999C431.511 53.4706 433.003 51.1919 432.462 48.6412C432.242 47.3812 431.66 46.2106 430.75 45.1812C429.879 44.0986 428.99 42.9932 428.084 41.8679C427.632 41.3052 427.175 40.7386 426.715 40.1652C426.26 39.5772 425.803 39.0786 425.226 38.6479C424.094 37.7959 422.663 37.3039 421.206 37.3066C420.488 37.2932 419.75 37.4612 418.992 37.5639C418.244 37.6786 417.502 37.7919 416.764 37.9039C415.298 38.1319 413.852 38.3572 412.432 38.5772C411.091 38.8732 409.866 39.5772 408.966 40.5479C408.514 41.0319 408.136 41.5759 407.848 42.1559C407.574 42.7265 407.344 43.3879 407.096 43.9946C406.611 45.2292 406.136 46.4332 405.675 47.6039C405.242 48.7879 404.674 49.8892 404.508 50.9959C404.127 53.2706 404.999 55.3892 406.328 56.8479C407.563 58.4172 408.683 59.8426 409.678 61.1066C410.18 61.7292 410.599 62.3439 411.079 62.7999C411.556 63.2652 412.055 63.6279 412.535 63.8959C414.5 64.9505 415.844 64.7625 415.816 64.8625C415.816 64.8745 415.739 64.8839 415.587 64.8919C415.434 64.9012 415.207 64.8972 414.908 64.8719C414.319 64.8159 413.428 64.6599 412.407 64.1346C411.898 63.8746 411.366 63.5132 410.851 63.0386C410.324 62.5652 409.887 61.9545 409.375 61.3505C408.356 60.1052 407.208 58.7012 405.946 57.1559C404.562 55.6959 403.536 53.3612 403.939 50.9079C404.12 49.6652 404.691 48.5585 405.107 47.3825C405.559 46.2079 406.024 45.0012 406.5 43.7626C406.751 43.1412 406.954 42.5252 407.263 41.8692C407.576 41.2292 407.986 40.6292 408.48 40.0959C409.466 39.0252 410.808 38.2439 412.287 37.9132C413.751 37.6559 415.178 37.4572 416.66 37.2212C417.398 37.1079 418.14 36.9932 418.888 36.8786C419.627 36.7799 420.386 36.6012 421.206 36.6132C422.815 36.6092 424.392 37.1532 425.64 38.0959C426.264 38.5546 426.811 39.1612 427.251 39.7359C427.71 40.3106 428.164 40.8786 428.615 41.4426C429.515 42.5719 430.4 43.6799 431.267 44.7666C432.198 45.8199 432.875 47.1706 433.092 48.5332C433.331 49.8999 433.156 51.2959 432.666 52.5066C432.204 53.6746 431.756 54.8106 431.322 55.9092C430.887 57.0052 430.467 58.0639 430.063 59.0839C429.684 60.1345 429.07 61.0839 428.336 61.8132C426.871 63.3186 424.91 63.8599 423.346 63.9865C421.787 64.2025 420.432 64.3906 419.294 64.5479C418.179 64.6932 417.318 64.8199 416.724 64.8639C416.126 64.8866 415.816 64.8865 415.816 64.8625Z" fill="#111827"/>
<path d="M545.712 47.4571C545.85 47.5771 544.364 49.5797 542.279 51.8504C540.191 54.1264 538.204 55.6758 538.082 55.5318C537.954 55.3851 539.704 53.6318 541.77 51.3798C543.836 49.1278 545.56 47.3251 545.712 47.4571Z" fill="#111827"/>
<path d="M520.711 39.7898C520.887 39.7284 521.806 41.9538 522.495 44.8324C523.191 47.7111 523.384 50.1098 523.2 50.1364C523.006 50.1658 522.507 47.8391 521.819 44.9951C521.139 42.1511 520.523 39.8524 520.711 39.7898Z" fill="#111827"/>
<path d="M510.771 60.4168C510.693 60.5995 508.446 59.8102 505.646 58.9475C502.847 58.0768 500.545 57.4582 500.585 57.2648C500.62 57.0822 503.015 57.4021 505.851 58.2835C508.688 59.1581 510.845 60.2461 510.771 60.4168Z" fill="#111827"/>
<path d="M507.923 83.5477C507.776 83.425 508.996 81.721 510.65 79.7423C512.303 77.7637 513.762 76.2597 513.908 76.3823C514.056 76.505 512.835 78.209 511.182 80.1877C509.53 82.1663 508.07 83.6704 507.923 83.5477Z" fill="#111827"/>
<path d="M530.382 90.8512C530.193 90.8819 529.773 88.9565 529.443 86.5512C529.114 84.1472 529.002 82.1805 529.193 82.1579C529.383 82.1352 529.803 84.0605 530.131 86.4579C530.459 88.8552 530.571 90.8232 530.382 90.8512Z" fill="#111827"/>
<path d="M549.351 73.7632C549.282 73.9419 547.52 73.4312 545.418 72.6232C543.314 71.8152 541.664 71.0139 541.732 70.8352C541.802 70.6565 543.563 71.1672 545.667 71.9752C547.77 72.7832 549.419 73.5845 549.351 73.7632Z" fill="#111827"/>
<path d="M814.044 176.002C823.081 165.13 832.105 154.142 839.137 141.877C846.168 129.611 851.176 115.901 851.507 101.766C851.556 99.6233 850.632 84.7473 848.572 84.1539C847.1 83.7286 846.089 96.8593 844.883 97.8046C833.372 106.817 825.889 120.19 821.587 134.162C817.284 148.134 815.248 161.433 814.044 176.002Z" fill="#111827"/>
<path d="M696.467 258.701C700.065 249.386 717.779 202.754 717.708 202.726C717.708 202.726 687.161 186.826 697.647 154.457C702.713 138.822 715.767 107.472 727.908 79.2382C740.957 48.8915 775.129 33.6702 806.425 44.2382L809.535 45.2875C842.411 58.5715 849.495 93.9142 835.307 126.409L770.017 277.742L712.769 260.046L696.467 258.701Z" fill="#FED7AA"/>
<path d="M717.708 202.726C717.708 202.726 737.624 210.779 763.868 204.491C763.868 204.491 745.707 225.009 714.521 211.245L717.708 202.726Z" fill="#FDBA74"/>
<path d="M727.899 110.365C726.991 112.766 728.277 115.515 730.768 116.507C733.255 117.498 736.008 116.362 736.915 113.959C737.821 111.558 736.537 108.807 734.051 107.815C731.56 106.822 728.805 107.962 727.899 110.365Z" fill="#111827"/>
<path d="M730.28 94.9418C730.648 95.7338 735.006 94.3311 739.956 96.0165C744.924 97.6298 747.699 101.406 748.44 100.981C748.795 100.802 748.58 99.5205 747.387 97.8338C746.216 96.1605 743.935 94.1471 740.844 93.1178C737.754 92.0938 734.775 92.3525 732.89 93.0112C730.972 93.6658 730.09 94.5765 730.28 94.9418Z" fill="#111827"/>
<path d="M771.356 127.839C770.448 130.24 771.734 132.989 774.226 133.981C776.712 134.973 779.465 133.836 780.372 131.433C781.278 129.032 779.993 126.281 777.506 125.289C775.016 124.296 772.261 125.437 771.356 127.839Z" fill="#111827"/>
<path d="M778.124 113.33C778.494 114.124 782.858 112.723 787.803 114.407C792.77 116.02 795.544 119.796 796.287 119.371C796.64 119.191 796.432 117.914 795.231 116.226C794.062 114.551 791.782 112.538 788.691 111.508C785.599 110.483 782.62 110.743 780.735 111.4C778.822 112.058 777.936 112.968 778.124 113.33Z" fill="#111827"/>
<path d="M747.501 145.393C747.62 145.119 744.72 143.547 739.946 141.225C738.725 140.667 737.612 140.011 737.69 139.077C737.702 138.063 738.692 136.877 739.801 135.611C742.025 132.953 744.353 130.165 746.794 127.243C756.621 115.285 764.189 105.278 763.704 104.886C763.218 104.495 754.861 113.871 745.036 125.83C742.642 128.791 740.358 131.61 738.18 134.31C737.217 135.586 735.842 136.938 735.848 139.053C735.869 140.113 736.565 141.113 737.302 141.605C738.03 142.126 738.737 142.381 739.35 142.629C744.28 144.594 747.386 145.669 747.501 145.393Z" fill="#111827"/>
<path d="M760.923 153.744C760.132 153.425 758.307 158.798 752.416 161.06C746.529 163.337 741.001 160.798 740.705 161.536C740.516 161.848 741.629 163.01 744.027 163.894C746.372 164.777 750.095 165.184 753.7 163.801C757.297 162.408 759.559 159.694 760.487 157.549C761.451 155.372 761.301 153.837 760.923 153.744Z" fill="#111827"/>
<path d="M785.186 93.322C785.219 94.834 790.38 95.8647 795.956 98.5287C801.584 101.079 805.696 104.362 806.875 103.415C807.415 102.954 807.026 101.41 805.571 99.4674C804.132 97.5314 801.554 95.282 798.196 93.7154C794.836 92.1554 791.454 91.6314 789.047 91.7767C786.623 91.9154 785.191 92.6127 785.186 93.322Z" fill="#111827"/>
<path d="M737.887 79.1673C738.379 80.5873 742.186 80.5713 746.309 81.902C750.475 83.0886 753.63 85.218 754.827 84.31C755.37 83.858 755.205 82.546 754.046 80.9686C752.909 79.402 750.698 77.69 747.85 76.8233C745.001 75.9593 742.213 76.154 740.395 76.8246C738.555 77.4913 737.689 78.49 737.887 79.1673Z" fill="#111827"/>
<path d="M824.614 149.387C825.244 149.335 848.975 150.315 840.83 172.115C832.683 193.915 812.478 181.24 812.672 180.6C812.87 179.962 824.614 149.387 824.614 149.387Z" fill="#FED7AA"/>
<path d="M822.418 174.833C822.54 174.798 822.699 175.239 823.231 175.774C823.75 176.294 824.752 176.894 826.048 176.893C828.666 176.909 831.972 173.977 833.546 170.086C834.342 168.123 834.632 166.078 834.514 164.251C834.444 162.409 833.83 160.909 832.747 160.27C831.692 159.571 830.612 159.959 830.116 160.474C829.596 160.973 829.572 161.461 829.443 161.454C829.362 161.487 829.112 160.914 829.623 160.079C829.876 159.681 830.323 159.262 830.992 159.034C831.674 158.805 832.524 158.875 833.299 159.265C834.936 160.007 835.872 162.121 836.003 164.126C836.224 166.174 835.944 168.49 835.05 170.695C833.268 175.035 829.484 178.306 825.992 178.039C824.31 177.866 823.203 176.925 822.734 176.165C822.26 175.373 822.328 174.843 822.418 174.833Z" fill="#FDBA74"/>
<path d="M755.777 48.637C753.006 45.3477 767.929 38.0104 778.074 37.405C793.407 36.4917 814.751 40.4957 825.482 48.5317C838.402 58.2064 847.679 70.041 849.894 86.0304C852.11 102.018 848.946 118.444 842.742 133.345C840.85 137.892 838.535 142.5 834.587 145.444C829.71 149.084 822.726 149.874 820.438 156.598C819.603 159.056 817.974 161.236 815.636 162.365C810.038 165.069 806.699 159.229 805.993 154.388C804.483 144.045 807.85 133.68 811.171 123.77C813.531 116.726 815.966 109.54 820.474 103.634C822.926 100.42 825.947 97.653 828.218 94.309C830.49 90.965 831.978 86.7504 830.842 82.8717C830.656 82.241 830.278 81.389 829.762 80.409C825.679 72.6544 817.685 67.7344 808.925 67.5037C795.029 67.137 771.653 65.5837 767.79 59.337C762.231 50.3504 761.847 45.7344 761.847 45.7344L755.777 48.637Z" fill="#111827"/>
<path d="M828.304 35.2338C829.701 35.9431 862.464 56.1845 862.246 85.7018C862.03 115.216 856.629 122.446 856.629 122.446C856.629 122.446 858.26 124.406 859.241 126.911C860.121 129.155 855.094 136.75 850.782 134.215C821.368 106.924 780.833 91.2511 734.592 76.9324L699.709 64.4471C689.508 62.2125 686.96 58.4244 691.944 57.3858C695.765 56.5898 727.446 54.9898 727.446 54.9898L734.288 52.8818L755.656 37.7991C755.656 37.7991 754.829 34.3938 759.166 33.2871C763.502 32.1778 800.713 21.2325 828.304 35.2338Z" fill="#EA580C"/>
<path d="M734.288 52.8819C734.288 52.8819 734.752 53.0686 735.651 53.3632C736.724 53.7059 738.024 54.1205 739.591 54.6219C743.033 55.6445 747.933 57.3752 753.955 59.5952C765.933 64.1712 782.187 71.4272 798.955 81.5632C815.792 91.5899 830.099 102.138 840.311 109.911C845.429 113.789 849.507 117.013 852.339 119.221C853.636 120.231 854.713 121.07 855.603 121.762C856.353 122.337 856.767 122.615 856.767 122.615C856.767 122.615 856.407 122.271 855.681 121.663C854.812 120.947 853.759 120.078 852.491 119.031C849.703 116.765 845.667 113.487 840.58 109.562C830.429 101.695 816.144 91.0752 799.273 81.0299C782.473 70.8726 766.147 63.6605 754.108 59.1832C742.027 54.7712 734.288 52.8819 734.288 52.8819Z" fill="#111827"/>
<path d="M855.379 61.9883C855.379 61.9883 855.349 61.9723 855.291 61.9416C854.232 60.171 853.092 58.4736 851.901 56.8536C853.276 58.4429 854.448 60.1523 855.379 61.9883Z" fill="#A7A9A8"/>
<path d="M855.291 61.9434C853.426 60.9554 822.616 44.786 802.826 44.786C801.587 44.786 800.392 44.8487 799.25 44.9833C800.027 44.878 800.806 44.7713 801.583 44.666C795.367 45.1833 789.152 45.702 782.936 46.2193C782.068 46.2913 781.164 46.3513 780.264 46.3513C777.902 46.3513 775.572 45.9407 774.003 44.2754C774.003 44.2754 785.114 39.5687 802.696 39.5687C802.866 39.5687 803.034 39.5687 803.203 39.57C819.018 39.65 841.371 44.6793 851.902 56.8553C853.092 58.4753 854.232 60.1727 855.291 61.9434Z" fill="#EA580C"/>
<path d="M855.867 62.3828C855.867 62.3828 855.053 61.0602 853.21 58.9562C851.374 56.8575 848.523 53.9362 844.439 51.0295C840.39 48.0962 835.11 45.1922 828.843 43.0402C822.614 40.8922 815.302 39.3508 807.642 40.0962C803.823 40.4188 800.166 41.1708 796.652 41.9055C793.151 42.7042 789.75 43.2948 786.547 44.1841C783.367 45.0775 780.391 46.0615 777.498 46.3388C774.595 46.7468 771.951 46.0495 769.587 45.2882C760.134 42.1828 755.027 38.2508 755.657 37.8002C755.663 37.7762 755.63 38.2415 756.152 38.8002C756.664 39.3348 757.51 40.0415 758.707 40.7668C761.088 42.2348 764.71 44.0855 769.451 45.7055C771.79 46.4975 774.58 47.2495 777.55 46.8535C780.515 46.5895 783.538 45.6068 786.699 44.7375C789.855 43.8762 793.285 43.2908 796.779 42.5028C800.287 41.7775 803.925 41.0348 807.695 40.7161C815.251 39.9815 822.46 41.4801 828.658 43.5828C834.879 45.6868 840.135 48.5242 844.185 51.3895C848.27 54.2255 851.146 57.0788 853.029 59.1175C853.971 60.1415 854.67 60.9655 855.126 61.5402C855.595 62.1042 855.867 62.3828 855.867 62.3828Z" fill="#111827"/>
<path d="M861.201 104.566C861.407 102.801 861.592 100.873 861.748 98.7744C861.685 100.272 861.525 103.277 861.201 104.566Z" fill="#A7A9A8"/>
<path d="M861.2 104.568C845.092 97.751 835.076 91.0564 820.662 81.259C818.133 79.5404 812.189 74.8324 810.79 72.1124C809.39 69.3937 809.425 66.5217 810.918 63.8537C813.117 69.0097 819.108 72.5364 824.049 75.875C830.561 80.2737 837.322 84.003 844.037 88.0857C850.338 91.9177 854.933 95.4884 861.78 97.895C861.78 97.895 861.77 98.2377 861.748 98.7737C861.592 100.872 861.406 102.8 861.201 104.566C861.201 104.567 861.201 104.567 861.2 104.568Z" fill="#EA580C"/>
<path d="M862.135 82.4275C865.834 85.8075 868.065 87.9955 866.918 91.7422C865.965 94.8609 864.042 98.4169 860.821 97.9129C859.838 97.7582 858.954 97.2462 858.095 96.7435C843.395 88.1342 828.696 79.5248 813.996 70.9155C812.506 70.0422 810.904 69.0395 810.336 67.4075C809.462 64.8969 811.652 62.1542 814.216 61.4569C816.78 60.7595 819.494 61.5222 822.023 62.3382C836.398 66.9849 849.507 74.1342 862.135 82.4275Z" fill="#EA580C"/>
<path d="M810.826 68.3533C810.916 68.3253 810.178 67.5467 810.262 65.848C810.331 64.2533 811.45 61.6347 814.262 60.5387C817.091 59.58 820.842 60.2227 824.515 61.7053C828.251 63.2013 832.342 64.904 836.564 66.832C845.032 70.6626 852.347 74.8586 857.327 78.3546C859.838 80.0733 861.775 81.596 863.112 82.6493C863.658 83.0893 864.16 83.496 864.638 83.8813C864.992 84.1587 865.184 84.296 865.199 84.28C865.214 84.2653 865.048 84.096 864.72 83.788C864.266 83.372 863.787 82.936 863.267 82.4626C861.975 81.348 860.069 79.768 857.58 77.9946C852.643 74.3893 845.319 70.108 836.824 66.2666C832.584 64.3293 828.483 62.6427 824.723 61.1707C820.971 59.7 817.116 59.0506 814.104 60.128C811.102 61.3706 810.024 64.1613 810.02 65.84C810.006 66.7173 810.234 67.376 810.432 67.784C810.66 68.1786 810.814 68.3626 810.826 68.3533Z" fill="#111827"/>
<path d="M748.951 42.5336L778.972 52.1495L773.568 59.6855L741.394 47.8682L748.951 42.5336Z" fill="white"/>
<path d="M784.951 84.4698C785.027 84.3165 772.39 77.8538 756.727 70.0378C741.059 62.2192 728.299 56.0072 728.223 56.1618C728.146 56.3152 740.78 62.7765 756.45 70.5952C772.112 78.4112 784.874 84.6245 784.951 84.4698Z" fill="#111827"/>
<path d="M792.521 246.23L792.915 226.521L725.475 251.573C725.475 251.573 713.011 211.088 713.011 209.176L698.065 218.57L673.227 207.89L648.387 195.613L598.143 283.553L545.438 438.971L669.641 521.797L761.723 423.117L817.7 337.817L848.479 283.788L792.521 246.23Z" fill="#EA580C"/>
<path d="M719.479 251.286C719.439 251.286 719.404 250.597 719.375 249.315C719.358 247.935 719.335 246.083 719.307 243.789L719.611 243.982C714.451 246.485 706.691 250.995 699.303 257.889L698.764 258.393L698.722 257.654C698.672 256.778 698.62 255.842 698.567 254.898C698.026 245.231 697.575 236.479 697.283 230.142C697.156 227.049 697.051 224.51 696.974 222.635C696.954 221.814 696.938 221.138 696.924 220.593C696.922 220.126 696.931 219.879 696.955 219.878C696.979 219.877 697.016 220.121 697.064 220.585C697.112 221.129 697.171 221.802 697.244 222.621C697.376 224.491 697.555 227.026 697.774 230.115C698.191 236.445 698.719 245.193 699.26 254.859C699.312 255.803 699.364 256.739 699.414 257.615L698.832 257.382C706.296 250.438 714.179 245.977 719.428 243.597L719.74 243.455L719.732 243.791C719.68 246.086 719.636 247.938 719.604 249.317C719.562 250.598 719.519 251.286 719.479 251.286Z" fill="#111827"/>
<path d="M786.301 247.176C786.31 247.199 786.046 247.342 785.533 247.594C784.95 247.87 784.202 248.226 783.274 248.666C781.222 249.606 778.386 250.903 774.917 252.492C767.762 255.692 758.01 260.054 747.236 264.874C742.621 266.912 738.193 268.868 734.085 270.683L733.524 270.93L733.629 270.327C734.949 262.816 735.218 256.192 735.165 251.35L735.478 251.538C732.866 252.807 730.773 253.824 729.252 254.563C728.574 254.88 728.024 255.136 727.586 255.34C727.205 255.511 727.004 255.59 726.994 255.571C726.985 255.554 727.169 255.439 727.532 255.234C727.957 255.003 728.49 254.714 729.148 254.356C730.646 253.574 732.71 252.496 735.284 251.154L735.585 250.996L735.596 251.342C735.75 256.202 735.56 262.87 734.274 270.439L733.82 270.084C737.922 268.258 742.345 266.291 746.954 264.239C757.761 259.492 767.542 255.195 774.717 252.043C778.225 250.538 781.092 249.308 783.165 248.419C784.114 248.027 784.881 247.711 785.476 247.466C786.008 247.255 786.292 247.155 786.301 247.176Z" fill="#111827"/>
<path d="M668.398 539.07H160.524C149.796 539.07 141.1 530.374 141.1 519.647V167.993C141.1 157.266 149.796 148.57 160.524 148.57H668.398C679.125 148.57 687.821 157.266 687.821 167.993V519.647C687.821 530.374 679.125 539.07 668.398 539.07Z" fill="#33535F"/>
<path d="M688.334 548.018H143.464C130.358 548.018 119.733 537.393 119.733 524.287V513.848H712.064V524.287C712.064 537.393 701.44 548.018 688.334 548.018Z" fill="#33535F"/>
<path d="M155.776 493.855H671.618V164.083H155.776V493.855Z" fill="#111827"/>
<path d="M360.565 510.189L367.916 522.816H471.344L478.169 510.189H360.565Z" fill="#111827"/>
<path d="M657.691 492.801H170.765C168.355 492.801 166.401 490.847 166.401 488.437V179.613C166.401 177.202 168.355 175.249 170.764 175.249H657.691C660.1 175.249 662.053 177.202 662.053 179.611V488.438C662.053 490.847 660.1 492.801 657.691 492.801Z" fill="#E5E7EB"/>
<path d="M661.523 493.266H165.871L166.402 198.98H661.523V493.266Z" fill="#FAFAF9"/>
<path d="M208.045 187.512C208.045 189.874 206.219 191.787 203.964 191.787C201.709 191.787 199.883 189.874 199.883 187.512C199.883 185.15 201.709 183.236 203.964 183.236C206.219 183.236 208.045 185.15 208.045 187.512Z" fill="#111827"/>
<path d="M183.307 187.512C183.307 189.874 181.481 191.787 179.226 191.787C176.973 191.787 175.145 189.874 175.145 187.512C175.145 185.15 176.973 183.236 179.226 183.236C181.481 183.236 183.307 185.15 183.307 187.512Z" fill="#111827"/>
<path d="M196.021 187.512C196.021 189.874 194.194 191.787 191.94 191.787C189.685 191.787 187.858 189.874 187.858 187.512C187.858 185.15 189.685 183.236 191.94 183.236C194.194 183.236 196.021 185.15 196.021 187.512Z" fill="#111827"/>
<path d="M683.124 510.188C683.124 510.398 561.777 510.57 412.125 510.57C262.42 510.57 141.1 510.398 141.1 510.188C141.1 509.976 262.42 509.805 412.125 509.805C561.777 509.805 683.124 509.976 683.124 510.188Z" fill="#111827"/>
<path d="M383.974 312.883C366.224 331.269 366.738 360.559 385.124 378.309C403.508 396.058 432.8 395.542 450.548 377.158C468.296 358.773 467.784 329.481 449.398 311.733C431.014 293.985 401.722 294.499 383.974 312.883ZM360.985 255.434C369.138 250.506 377.82 246.77 386.772 244.226L392.084 218.701L435.209 217.945L441.416 243.265C450.453 245.491 459.261 248.921 467.582 253.559L489.378 239.271L520.408 269.233L506.898 291.513C511.828 299.669 515.564 308.353 518.105 317.306L543.628 322.617L544.385 365.742L519.064 371.95C516.838 380.986 513.409 389.791 508.772 398.114L523.054 419.911L493.098 450.942L470.816 437.431C462.661 442.359 453.978 446.094 445.025 448.637L439.712 474.162L396.588 474.918L390.381 449.595C381.345 447.369 372.538 443.939 364.216 439.302L342.42 453.589L311.39 423.628L324.9 401.349C319.972 393.193 316.234 384.513 313.692 375.558L288.169 370.245L287.413 327.121L312.734 320.913C314.96 311.877 318.392 303.07 323.028 294.747L308.742 272.951L338.698 241.922L360.985 255.434Z" fill="#F3F4F6"/>
<path d="M553.352 276.383C552.452 287.01 561.716 295.338 572.01 293.558C579.028 292.345 584.528 286.415 585.13 279.318C586.032 268.69 576.766 260.358 566.469 262.141C559.452 263.355 553.952 269.287 553.352 276.383ZM533.264 271.89C533.856 268.661 534.877 265.566 536.266 262.675L530.896 255.47L540.558 244.171L548.509 248.358C551.149 246.535 554.048 245.046 557.146 243.959L558.442 235.07L573.265 233.913L575.926 242.491C579.157 243.085 582.252 244.105 585.142 245.497L592.346 240.126L603.645 249.787L599.46 257.739C601.282 260.379 602.769 263.277 603.857 266.375L612.746 267.673L613.904 282.495L605.325 285.155C604.732 288.386 603.712 291.479 602.321 294.371L607.692 301.577L598.029 312.875L590.077 308.689C587.437 310.511 584.54 311.998 581.441 313.086L580.144 321.975L565.322 323.133L562.661 314.554C559.43 313.961 556.337 312.942 553.445 311.55L546.241 316.921L534.941 307.258L539.128 299.306C537.305 296.666 535.818 293.769 534.73 290.67L525.841 289.373L524.684 274.551L533.264 271.89Z" fill="#F3F4F6"/>
<path d="M233.265 425.568C235.637 435.691 245.765 441.974 255.889 439.603C266.012 437.232 272.296 427.102 269.924 416.979C267.552 406.857 257.424 400.572 247.301 402.944C237.177 405.316 230.895 415.445 233.265 425.568ZM208.553 420.758C208.667 416.884 209.303 413.092 210.408 409.469L202.852 402.024L212.104 387.112L222.129 390.574C224.884 387.974 227.999 385.72 231.42 383.897L231.343 373.294L248.429 369.292L253.068 378.825C256.944 378.938 260.737 379.576 264.359 380.681L271.803 373.126L286.716 382.378L283.253 392.404C285.852 395.158 288.107 398.273 289.929 401.694L300.533 401.617L304.536 418.702L295.003 423.342C294.889 427.217 294.251 431.009 293.145 434.632L300.701 442.077L291.451 456.989L281.423 453.527C278.668 456.125 275.555 458.379 272.133 460.203L272.211 470.806L255.124 474.809L250.485 465.276C246.611 465.162 242.817 464.526 239.196 463.42L231.751 470.975L216.839 461.724L220.3 451.697C217.701 448.942 215.447 445.827 213.624 442.406L203.021 442.485L199.019 425.398L208.553 420.758Z" fill="#F3F4F6"/>
<path d="M254.37 283.723C254.887 290.344 260.674 295.292 267.294 294.775C273.915 294.258 278.862 288.471 278.344 281.851C277.827 275.23 272.042 270.282 265.42 270.799C258.8 271.316 253.854 277.103 254.37 283.723ZM239.234 278.294C239.68 275.859 240.45 273.527 241.498 271.347L237.448 265.915L244.734 257.396L250.728 260.552C252.718 259.179 254.903 258.056 257.239 257.238L258.216 250.536L269.391 249.663L271.398 256.131C273.834 256.578 276.166 257.347 278.346 258.396L283.776 254.347L292.295 261.631L289.139 267.626C290.514 269.616 291.635 271.8 292.455 274.138L299.156 275.115L300.03 286.29L293.562 288.295C293.115 290.731 292.344 293.063 291.296 295.243L295.346 300.675L288.062 309.194L282.066 306.036C280.075 307.411 277.891 308.532 275.555 309.352L274.578 316.054L263.403 316.926L261.398 310.459C258.962 310.012 256.628 309.243 254.45 308.195L249.018 312.243L240.499 304.959L243.655 298.964C242.282 296.974 241.16 294.788 240.34 292.452L233.639 291.475L232.766 280.3L239.234 278.294Z" fill="#E5E7EB"/>
<path d="M546.825 403.291C547.27 408.977 552.24 413.228 557.926 412.783C563.614 412.339 567.864 407.369 567.42 401.681C566.974 395.995 562.005 391.745 556.318 392.189C550.632 392.633 546.381 397.604 546.825 403.291ZM533.824 398.627C534.208 396.536 534.869 394.532 535.769 392.66L532.29 387.995L538.548 380.677L543.697 383.388C545.406 382.208 547.284 381.244 549.29 380.54L550.129 374.784L559.729 374.035L561.452 379.589C563.544 379.973 565.548 380.635 567.42 381.535L572.085 378.057L579.402 384.315L576.692 389.464C577.872 391.173 578.836 393.049 579.54 395.056L585.296 395.896L586.045 405.495L580.49 407.217C580.106 409.309 579.445 411.313 578.544 413.185L582.022 417.852L575.765 425.169L570.616 422.457C568.906 423.637 567.029 424.601 565.022 425.305L564.184 431.061L554.584 431.811L552.861 426.256C550.769 425.872 548.766 425.212 546.893 424.311L542.228 427.789L534.91 421.532L537.621 416.381C536.441 414.672 535.478 412.796 534.774 410.789L529.017 409.949L528.268 400.351L533.824 398.627Z" fill="#E5E7EB"/>
<path d="M415.899 413.092H349.561C332.429 413.092 321.723 394.546 330.288 379.71L363.457 322.26L396.625 264.81C405.192 249.973 426.607 249.973 435.172 264.81L468.341 322.26L501.509 379.71C510.076 394.546 499.368 413.092 482.236 413.092H415.899Z" fill="#EA580C"/>
<path d="M487.308 386.348C487.308 386.348 487.495 386.691 487.827 387.38C488.082 388.092 488.502 389.184 488.5 390.692C488.536 392.181 488.167 394.087 486.948 395.932C486.33 396.836 485.516 397.724 484.45 398.421C483.378 399.1 482.066 399.572 480.635 399.668C469.33 399.788 453.006 399.768 432.818 399.817C412.628 399.839 388.595 399.864 361.912 399.892C358.576 399.895 355.199 399.896 351.782 399.899C348.186 399.977 344.764 397.42 343.61 393.984C342.999 392.284 342.866 390.4 343.272 388.613C343.388 388.173 343.534 387.737 343.678 387.303C343.872 386.891 344.056 386.463 344.263 386.064L345.542 383.724C347.251 380.597 348.978 377.441 350.719 374.256C357.688 361.516 364.903 348.327 372.292 334.819C379.69 321.307 386.911 308.116 393.886 295.376C397.374 289.007 400.8 282.751 404.156 276.623C405.012 275.093 405.794 273.563 406.698 272.057C407.611 270.536 408.894 269.223 410.431 268.352C413.488 266.568 417.348 266.444 420.462 267.901C422.016 268.625 423.407 269.708 424.427 271.068C425.43 272.463 426.122 273.928 426.922 275.347C428.48 278.2 430.018 281.015 431.532 283.789C434.563 289.337 437.504 294.724 440.348 299.933C446.031 310.351 451.326 320.055 456.16 328.916C465.803 346.635 473.608 360.976 479.012 370.907C481.691 375.86 483.772 379.709 485.195 382.34C485.888 383.639 486.419 384.633 486.787 385.321C487.143 385.995 487.308 386.348 487.308 386.348C487.308 386.348 487.1 386.017 486.726 385.355C486.343 384.675 485.792 383.691 485.072 382.407C483.623 379.791 481.503 375.963 478.775 371.036C473.326 361.131 465.454 346.825 455.73 329.152C450.872 320.303 445.552 310.612 439.843 300.209C436.988 295.007 434.038 289.625 430.998 284.081C429.478 281.311 427.935 278.497 426.372 275.647C425.578 274.236 424.851 272.733 423.924 271.453C422.963 270.173 421.655 269.161 420.194 268.483C417.266 267.115 413.626 267.237 410.759 268.915C409.318 269.733 408.119 270.965 407.26 272.399C406.387 273.853 405.586 275.423 404.739 276.941C401.387 283.071 397.966 289.331 394.482 295.703C387.511 308.444 380.294 321.637 372.902 335.151C365.508 348.657 358.288 361.845 351.316 374.583C349.572 377.767 347.844 380.921 346.132 384.047C345.314 385.639 344.271 387.105 343.923 388.765C343.546 390.423 343.666 392.175 344.232 393.759C345.316 396.965 348.459 399.312 351.782 399.245C355.199 399.248 358.576 399.251 361.912 399.252C388.595 399.28 412.628 399.305 432.818 399.327C452.987 399.356 469.311 399.381 480.616 399.397C482.002 399.316 483.274 398.869 484.32 398.22C485.362 397.552 486.164 396.693 486.778 395.816C487.986 394.025 488.374 392.159 488.36 390.693C488.306 387.704 487.182 386.373 487.308 386.348Z" fill="#111827"/>
<path d="M405.261 313.844H427.796L424.006 358.216H408.95L405.261 313.844ZM405.161 374.07C405.161 368.187 409.848 363.8 416.529 363.8C423.209 363.8 427.796 368.187 427.796 374.07C427.796 379.854 423.209 384.539 416.529 384.539C409.848 384.539 405.161 379.854 405.161 374.07Z" fill="white"/>
<path d="M419.079 258.213C419.028 258.354 417.525 257.469 414.856 257.343C412.227 257.189 408.444 258.054 405.241 260.559C402.041 263.082 400.093 266.345 398.885 268.721C397.676 271.122 397.108 272.702 397 272.663C396.956 272.647 397.048 272.237 397.277 271.511C397.507 270.787 397.883 269.751 398.443 268.507C399.553 266.049 401.481 262.642 404.815 260.011C408.167 257.389 412.157 256.565 414.888 256.854C416.264 256.985 417.345 257.31 418.044 257.626C418.745 257.938 419.096 258.179 419.079 258.213Z" fill="white"/>
<path d="M391.34 282.59C391.176 282.492 391.829 281.082 392.8 279.44C393.772 277.798 394.693 276.546 394.857 276.644C395.022 276.741 394.369 278.152 393.397 279.793C392.426 281.436 391.505 282.688 391.34 282.59Z" fill="white"/>
<path d="M332.447 375.973L345.866 352.729L370.951 337.271C366.643 345.147 362.397 352.91 358.226 360.535L332.447 375.973ZM359.387 359.839C363.57 352.201 367.826 344.423 372.145 336.537L405.442 316.018L406.729 331.49L359.387 359.839Z" fill="#FCA5A5"/>
<path d="M358.226 360.535C362.396 352.91 366.643 345.147 370.951 337.271L372.144 336.536C367.826 344.423 363.57 352.2 359.387 359.839L358.226 360.535Z" fill="#4B5563"/>
<path d="M427.343 319.145L427.796 313.846H408.967L437.633 296.181C438.376 297.535 439.112 298.879 439.843 300.21C441.451 303.139 443.028 306.013 444.572 308.827L427.343 319.145ZM445.045 308.543C443.511 305.731 441.944 302.861 440.348 299.934C439.615 298.593 438.876 297.239 438.131 295.874L449.177 289.067L451.523 293.131L456.471 301.702L445.045 308.543Z" fill="#FCA5A5"/>
<path d="M444.572 308.826C443.028 306.012 441.451 303.138 439.843 300.209C439.112 298.878 438.376 297.534 437.634 296.18L438.131 295.873C438.876 297.238 439.615 298.592 440.348 299.933C441.944 302.86 443.511 305.73 445.046 308.542L444.572 308.826Z" fill="#4B5563"/>
<path d="M406.728 331.488L405.441 316.016L408.967 313.844H427.796L427.343 319.143L406.728 331.488Z" fill="white"/>
<path d="M331.474 403.809C330.128 402.257 328.904 399.905 328.508 398.075C329.218 400.118 330.22 402.051 331.474 403.809Z" fill="#E5E5E3"/>
<path d="M331.479 403.812C331.477 403.811 331.476 403.81 331.475 403.808C330.22 402.051 329.219 400.118 328.508 398.075C328.507 398.068 328.505 398.063 328.504 398.056L343.124 389.433C342.917 390.967 343.091 392.542 343.609 393.983C343.839 394.669 344.159 395.318 344.553 395.919L331.479 403.812ZM345.121 395.576C344.752 395.014 344.451 394.403 344.232 393.758C343.692 392.246 343.557 390.58 343.875 388.99L408.347 350.958L408.857 357.098L345.121 395.576Z" fill="#FCA5A5"/>
<path d="M344.553 395.92C344.159 395.319 343.839 394.669 343.609 393.984C343.091 392.543 342.917 390.968 343.124 389.433L343.875 388.991C343.557 390.581 343.692 392.247 344.232 393.759C344.451 394.404 344.752 395.015 345.121 395.577L344.553 395.92Z" fill="#4B5563"/>
<path d="M424.931 347.395L425.491 340.847L453.183 324.512C453.995 325.993 454.796 327.452 455.584 328.888L424.931 347.395ZM456.005 328.635C455.221 327.196 454.425 325.737 453.617 324.256L465.444 317.279L467.867 321.473L456.005 328.635Z" fill="#FCA5A5"/>
<path d="M455.584 328.889C454.796 327.453 453.995 325.994 453.183 324.513L453.617 324.257C454.425 325.738 455.221 327.197 456.005 328.635L455.584 328.889Z" fill="#4B5563"/>
<path d="M408.857 357.098L408.347 350.958L425.491 340.846L424.931 347.394L408.857 357.098Z" fill="white"/>
<path d="M803.883 467.918C792.914 455.829 776.286 451.945 761.691 456.621L748.928 442.617L747.151 440.629L646.182 329.846C652.25 315.773 649.996 298.848 639.028 286.758C629.699 276.476 616.276 272.124 603.492 273.928L598.56 275.888L615.735 287.421L614.826 306.148L600.94 318.746L582.214 317.836L569.971 304.342L564.911 306.32C563.46 317.622 571.038 331.853 579.295 340.954C590.248 353.026 606.842 356.916 621.422 352.273L724.082 464.912L727.239 468.413L736.97 479.089C730.935 493.149 733.196 510.043 744.15 522.115C752.374 531.179 763.28 537.23 774.626 536.922L779.686 534.945L767.442 521.451L768.352 502.725L782.238 490.127L800.964 491.037L808.147 506.509L813.207 504.53C816.242 491.982 813.211 478.2 803.883 467.918Z" fill="#F3F4F6"/>
<path d="M773.797 536.934C762.752 536.934 752.173 530.958 744.149 522.114C737.154 514.404 733.704 504.727 733.696 495.078C733.69 489.619 734.788 484.168 736.969 479.088L727.238 468.412L724.081 464.911L661.522 396.272L621.421 352.272C617.432 353.543 613.292 354.174 609.158 354.174C598.184 354.174 587.25 349.722 579.294 340.954C574.824 336.026 570.552 329.594 567.805 322.936C565.904 318.332 564.733 313.62 564.73 309.223C564.73 308.238 564.788 307.268 564.91 306.319L569.97 304.342L582.213 317.835L600.94 318.746L614.825 306.147L615.734 287.42L610.137 283.662L598.56 275.887L603.492 273.927C605.37 273.662 607.26 273.53 609.15 273.53C620.129 273.53 631.069 277.986 639.028 286.758C646.033 294.479 649.482 304.172 649.481 313.836C649.48 319.303 648.373 324.76 646.181 329.846L747.15 440.628L748.928 442.616L761.69 456.621C765.7 455.335 769.861 454.698 774.018 454.698C778.914 454.698 783.804 455.583 788.422 457.345L785.534 466.839C785.534 466.839 795.621 470.496 808.953 474.858C812.564 481.102 814.348 488.078 814.341 495.036C814.338 498.228 813.96 501.417 813.206 504.529L808.146 506.508L800.964 491.036L782.237 490.126L768.352 502.724L767.441 521.451L779.685 534.945L774.625 536.922C774.348 536.929 774.073 536.934 773.797 536.934Z" fill="#8F9192"/>
<path d="M798.823 469.896C787.853 457.807 771.225 453.925 756.631 458.599L743.868 444.595L742.091 442.607L641.121 331.824C647.189 317.752 644.936 300.826 633.968 288.736C624.639 278.455 611.216 274.103 598.432 275.906L610.675 289.4L609.765 308.126L595.88 320.724L577.153 319.814L564.911 306.32C561.876 318.868 564.905 332.651 574.235 342.932C585.187 355.004 601.781 358.894 616.36 354.251L719.021 466.89L722.179 470.392L731.909 481.067C725.875 495.127 728.136 512.02 739.089 524.092C748.419 534.375 761.841 538.727 774.625 536.923L762.381 523.43L763.292 504.703L777.177 492.104L795.904 493.015L808.147 506.508C811.181 493.961 808.151 480.179 798.823 469.896Z" fill="#F3F4F6"/>
<path d="M798.823 469.896C798.823 469.896 799.404 470.54 800.516 471.827C801.543 473.177 803.123 475.176 804.689 478.123C806.261 481.055 807.811 484.934 808.74 489.741C809.584 494.543 809.777 500.317 808.287 506.543L808.223 506.805L808.04 506.605C804.409 502.615 800.271 498.068 795.776 493.13L795.895 493.187C790.119 492.913 783.839 492.616 777.168 492.3L777.308 492.249C772.975 496.191 768.316 500.425 763.437 504.863L763.507 504.713C763.231 510.53 762.928 516.864 762.615 523.44L762.555 523.272C766.345 527.444 770.513 532.029 774.809 536.756L775.124 537.103L774.66 537.169C768.325 538.073 761.545 537.479 755.143 535.16C748.743 532.86 742.745 528.816 738.095 523.34C733.407 517.91 730.073 511.029 728.884 503.579C727.661 496.146 728.528 488.184 731.633 480.949L731.687 481.269C697.451 443.713 658.113 400.564 616.105 354.484L616.465 354.58C609.397 356.836 601.469 357.156 593.928 355.212C586.383 353.304 579.307 349.064 573.965 343.151C569.472 338.201 566.248 332.161 564.652 325.747C563.04 319.336 563.036 312.579 564.575 306.239L564.728 305.604L565.167 306.088C569.276 310.617 573.356 315.116 577.408 319.583L577.171 319.469C583.46 319.776 589.703 320.08 595.896 320.383L595.651 320.471C600.324 316.231 604.951 312.035 609.537 307.875L609.427 308.109C609.735 301.797 610.039 295.56 610.34 289.383L610.427 289.624C606.3 285.073 602.223 280.577 598.187 276.128L597.764 275.661L598.385 275.577C605.923 274.556 613.644 275.596 620.415 278.603C627.196 281.579 633.029 286.387 637.176 292.252C641.348 298.096 643.908 304.956 644.529 311.888C645.184 318.819 644.033 325.765 641.397 331.943L641.343 331.621C691.383 386.636 731.659 430.916 756.744 458.494L756.584 458.452C763.808 456.156 770.676 456.232 776.315 457.229C781.964 458.349 786.465 460.329 789.783 462.361C793.133 464.372 795.297 466.42 796.767 467.735C798.14 469.16 798.823 469.896 798.823 469.896C798.823 469.896 798.1 469.196 796.711 467.793C795.227 466.5 793.051 464.479 789.701 462.499C786.384 460.496 781.893 458.551 776.272 457.461C770.661 456.493 763.84 456.444 756.677 458.744L756.584 458.775L756.517 458.701C731.385 431.165 691.033 386.955 640.899 332.027L640.768 331.884L640.845 331.705C643.437 325.617 644.564 318.772 643.913 311.948C643.296 305.12 640.771 298.371 636.66 292.62C632.573 286.849 626.828 282.121 620.155 279.197C613.491 276.243 605.892 275.224 598.479 276.233L598.677 275.683C602.715 280.131 606.793 284.625 610.923 289.175L611.016 289.277L611.009 289.416C610.711 295.593 610.409 301.829 610.104 308.143L610.097 308.283L609.992 308.377C605.408 312.539 600.783 316.736 596.109 320.977L596.005 321.072L595.863 321.065C589.669 320.765 583.427 320.463 577.137 320.157L576.995 320.151L576.899 320.045C572.845 315.579 568.764 311.081 564.655 306.552L565.247 306.401C563.735 312.633 563.74 319.277 565.324 325.579C566.895 331.883 570.063 337.817 574.479 342.684C579.731 348.499 586.684 352.664 594.1 354.54C601.513 356.452 609.308 356.137 616.256 353.923L616.467 353.855L616.616 354.019C658.6 400.121 697.913 443.291 732.131 480.865L732.261 481.008L732.184 481.185C729.12 488.311 728.256 496.158 729.455 503.485C730.619 510.832 733.897 517.618 738.515 522.981C743.097 528.389 749.007 532.387 755.321 534.665C761.637 536.963 768.332 537.561 774.591 536.677L774.441 537.089C770.152 532.356 765.993 527.764 762.209 523.585L762.144 523.515L762.149 523.417C762.475 516.841 762.788 510.508 763.076 504.692L763.081 504.603L763.147 504.543C768.036 500.116 772.703 495.891 777.045 491.96L777.105 491.905L777.187 491.91C783.856 492.241 790.136 492.555 795.912 492.842L795.983 492.846L796.031 492.899C800.511 497.852 804.635 502.411 808.253 506.412L808.007 506.475C809.509 500.299 809.341 494.56 808.524 489.78C807.621 484.994 806.103 481.125 804.557 478.192C803.019 475.246 801.461 473.237 800.456 471.873C799.365 470.573 798.823 469.896 798.823 469.896Z" fill="#111827"/>
<path d="M636.513 338.286C636.553 338.31 636.396 338.662 636.073 339.28C635.76 339.904 635.232 340.768 634.52 341.795C633.102 343.851 630.806 346.488 627.773 348.827C624.732 351.158 621.592 352.699 619.241 353.54C618.066 353.964 617.096 354.252 616.412 354.395C615.73 354.547 615.35 354.61 615.338 354.563C615.308 354.45 616.789 354.039 619.064 353.088C621.337 352.144 624.373 350.567 627.354 348.283C630.328 345.99 632.632 343.462 634.129 341.507C635.633 339.555 636.41 338.228 636.513 338.286Z" fill="#111827"/>
<path d="M749.271 386.402L710.86 368.533L676.576 364.258L689.168 374.862C689.168 374.862 644.851 390.308 644.074 393.79C643.296 397.274 647.575 406.629 655.38 404.902C655.38 404.902 650.99 410.186 652.818 416.106C654.647 422.028 658.683 423.097 666.135 421.724C666.135 421.724 661.066 429.31 665.04 433.18C669.014 437.049 675.196 436.067 675.196 436.067C675.196 436.067 675.271 445.308 680.154 446.117C685.036 446.925 698.638 445.968 703.714 444.4C708.79 442.833 729.512 436.433 729.512 436.433L746.327 432.744L749.271 386.402Z" fill="#FED7AA"/>
<path d="M678.684 398.132C678.832 398.64 673.732 400.568 667.296 402.439C660.857 404.31 655.52 405.414 655.373 404.906C655.225 404.398 660.323 402.471 666.761 400.6C673.197 398.73 678.536 397.626 678.684 398.132Z" fill="#FDBA74"/>
<path d="M685.208 416.37C685.36 416.877 681.31 418.545 676.162 420.094C671.012 421.644 666.715 422.491 666.562 421.984C666.41 421.479 670.46 419.811 675.61 418.261C680.758 416.711 685.056 415.865 685.208 416.37Z" fill="#FDBA74"/>
<path d="M691.06 431.525C691.15 432.095 687.47 432.875 683.149 433.958C678.85 435.087 675.464 436.567 675.196 436.065C674.946 435.648 678.058 433.324 682.658 432.107C687.236 430.964 690.99 431.052 691.06 431.525Z" fill="#FDBA74"/>
<path d="M695.905 373.391C696.048 373.91 691.016 375.735 684.799 377.881C678.576 380.017 673.487 381.674 673.281 381.177C673.08 380.698 677.889 378.229 684.176 376.071C690.457 373.903 695.769 372.89 695.905 373.391Z" fill="#FDBA74"/>
<path d="M742.051 383.044L825.1 413.121L820.247 470.125L728.816 433.261L742.051 383.044Z" fill="#FED7AA"/>
<path d="M848.608 283.294C848.608 283.294 859.439 294.487 865.74 314.607C871.999 334.585 901.783 420.013 901.024 447.157C900.24 475.221 881.347 495.248 839.824 484.157C815.047 477.54 785.535 466.84 785.535 466.84L806.514 397.864L822.926 402.001L796.422 352.251L848.608 283.294Z" fill="#EA580C"/>
<path d="M829.608 315.901C829.764 316.013 818.28 332.375 803.96 352.445C789.634 372.519 777.9 388.699 777.744 388.587C777.588 388.477 789.069 372.117 803.394 352.041C817.714 331.973 829.452 315.79 829.608 315.901Z" fill="#111827"/>
<path d="M861.382 411.437C861.351 411.487 860.664 411.085 859.367 410.489C858.071 409.888 856.136 409.152 853.672 408.477C851.212 407.795 848.223 407.159 844.907 406.437C841.582 405.703 837.946 404.899 834.128 404.055C826.484 402.345 819.574 400.76 814.579 399.579C812.174 398.995 810.183 398.511 808.674 398.144C807.282 397.791 806.518 397.573 806.528 397.527C806.54 397.479 807.324 397.608 808.735 397.881C810.258 398.192 812.264 398.604 814.691 399.1C819.714 400.159 826.642 401.669 834.287 403.379C838.099 404.241 841.731 405.063 845.052 405.815C848.358 406.569 851.34 407.256 853.81 408.005C856.279 408.748 858.214 409.565 859.486 410.247C860.126 410.581 860.604 410.873 860.919 411.084C861.235 411.296 861.394 411.416 861.382 411.437Z" fill="#111827"/>
<path d="M880.215 418.062C879.48 418.062 878.714 417.777 878.014 417.493C872.502 415.264 866.916 413.208 861.274 411.332C861.196 411.273 861.078 411.191 860.919 411.084C860.604 410.873 860.126 410.581 859.486 410.247C858.214 409.565 856.279 408.748 853.81 408.005C851.34 407.256 848.358 406.569 845.052 405.815C841.731 405.063 838.099 404.241 834.287 403.379C830.695 402.576 827.263 401.817 824.112 401.128C838.562 401.672 853.031 402.273 867.355 404.24C870.636 404.689 873.979 405.235 876.898 406.799C879.816 408.363 882.283 411.143 882.612 414.437C882.744 415.761 882.374 417.33 881.16 417.872C880.856 418.008 880.539 418.062 880.215 418.062ZM860.771 411.167C855.515 409.429 850.208 407.849 844.859 406.426C844.875 406.43 844.891 406.435 844.907 406.437C848.223 407.159 851.212 407.794 853.672 408.477C856.136 409.152 858.071 409.888 859.367 410.489C859.967 410.765 860.438 410.999 860.771 411.167Z" fill="#EA580C"/>
<path d="M861.273 411.332C861.105 411.277 860.938 411.221 860.77 411.167C860.437 410.999 859.966 410.765 859.366 410.489C858.07 409.888 856.136 409.152 853.672 408.477C851.212 407.795 848.222 407.159 844.906 406.437C844.89 406.435 844.874 406.431 844.858 406.427C837.864 404.567 830.797 402.977 823.681 401.663L822.289 401.06C822.896 401.083 823.504 401.105 824.112 401.128C827.262 401.817 830.694 402.576 834.286 403.379C838.098 404.241 841.73 405.063 845.052 405.815C848.357 406.569 851.34 407.256 853.809 408.005C856.278 408.748 858.213 409.565 859.485 410.247C860.125 410.581 860.604 410.873 860.918 411.084C861.077 411.191 861.196 411.273 861.273 411.332Z" fill="#111827"/>
<path d="M540.213 164.084H487.49C486.686 161.561 486.294 158.92 486.406 156.265C486.514 153.719 487.28 150.899 489.489 149.627C490.426 149.087 491.481 148.907 492.566 148.907C493.61 148.907 494.682 149.073 495.708 149.248C499.129 149.829 502.716 150.025 506.386 150.025C510.221 150.025 514.148 149.811 518.073 149.596C522 149.381 525.926 149.167 529.761 149.167C533.432 149.167 537.02 149.364 540.442 149.945C541.362 153.791 541.244 158.961 540.213 164.084Z" fill="#20353D"/>
<path d="M536.251 175.248H494.557C494.523 175.216 494.489 175.183 494.455 175.151C491.285 172.107 488.823 168.257 487.491 164.084H540.214C539.418 168.045 538.077 171.977 536.251 175.248Z" fill="#111827"/>
<path d="M519.154 184.654C517.181 184.654 515.196 184.462 513.262 184.133C506.356 182.96 499.632 180.073 494.556 175.248H536.25C534.528 178.332 532.373 180.828 529.838 182.201C526.58 183.966 522.885 184.654 519.154 184.654Z" fill="#979999"/>
<path d="M486.117 175.56C486.117 175.56 477.623 165.611 476.391 161.017C475.576 157.972 475.985 149.46 476.353 144.061C476.607 140.361 478.904 136.98 482.416 135.789C483.64 135.375 484.8 135.321 485.584 136.045C485.584 136.045 486.121 135.115 489.455 131.701C492.788 128.289 494.371 125.976 501.707 128.1C501.707 128.1 507.103 122.403 510.208 122.828C513.312 123.253 516.387 124.16 516.387 124.16C516.387 124.16 528.213 123.661 530.637 127.417C531.699 129.06 533.885 130.208 536.008 130.979C539.744 132.333 542.812 135.053 544.444 138.676C546.667 143.607 546.807 148.984 546.807 148.984L534.772 149.46C534.772 149.46 535.621 177.068 532.6 179.295C529.577 181.523 528.421 180.732 528.421 180.732C528.421 180.732 526.116 187.211 517.119 182.416C517.119 182.416 509.649 184.667 506.461 181.588C503.275 178.509 491.557 148.92 491.557 148.92L491.885 163.625C491.885 163.625 498.057 173.143 495.036 175.369C492.015 177.597 486.117 175.56 486.117 175.56Z" fill="#FED7AA"/>
<path d="M501.102 138.136C501.147 138.122 501.389 138.74 501.788 139.87C502.213 141.131 502.759 142.744 503.412 144.676C504.755 148.743 506.564 154.376 508.521 160.611C510.496 166.843 512.087 172.548 513.935 176.39C514.827 178.323 515.727 179.796 516.383 180.79C517.036 181.787 517.452 182.304 517.404 182.344C517.386 182.359 517.264 182.244 517.049 182.011C516.831 181.782 516.526 181.427 516.163 180.947C515.432 179.991 514.455 178.535 513.492 176.604C511.503 172.755 509.83 167.038 507.859 160.819C505.902 154.584 504.167 148.928 502.944 144.823C502.375 142.866 501.9 141.23 501.53 139.951C501.211 138.796 501.056 138.15 501.102 138.136Z" fill="#FDBA74"/>
<path d="M515.865 134.73C515.912 134.718 516.128 135.355 516.479 136.518C516.851 137.812 517.327 139.471 517.899 141.459C519.067 145.638 520.636 151.422 522.327 157.822C524.019 164.223 525.512 170.028 526.56 174.239C527.045 176.25 527.451 177.927 527.767 179.235C528.036 180.419 528.164 181.08 528.117 181.094C528.071 181.106 527.856 180.47 527.505 179.307C527.133 178.014 526.657 176.355 526.087 174.368C524.917 170.19 523.348 164.403 521.656 157.999C519.964 151.598 518.471 145.791 517.423 141.58C516.937 139.57 516.532 137.892 516.216 136.584C515.947 135.4 515.82 134.742 515.865 134.73Z" fill="#FDBA74"/>
</svg>
